<svg width="75" height="76" viewBox="0 0 75 76" fill="none" xmlns="http://www.w3.org/2000/svg">
<path d="M37.5 75.5C16.7888 75.5 0 58.7112 0 38C0 17.2888 16.7888 0.5 37.5 0.5C58.2112 0.5 75 17.2888 75 38C75 58.7112 58.2112 75.5 37.5 75.5ZM55.575 57.035C60.354 52.4877 63.2457 46.3078 63.6746 39.7251C64.1036 33.1424 62.0384 26.6395 57.89 21.5105C53.7416 16.3815 47.8141 13.0024 41.2872 12.0457C34.7602 11.089 28.1123 12.6248 22.6665 16.3475C17.2206 20.0702 13.376 25.7069 11.8978 32.1358C10.4195 38.5648 11.416 45.3146 14.689 51.0421C17.9619 56.7695 23.2713 61.0548 29.5606 63.045C35.8499 65.0352 42.658 64.5845 48.63 61.7825L44.9738 55.2012C41.2721 56.8101 37.1501 57.1815 33.2204 56.2602C29.2908 55.339 25.7633 53.1743 23.1624 50.088C20.5614 47.0016 19.0258 43.1583 18.7837 39.1294C18.5417 35.1005 19.6062 31.1011 21.8191 27.7255C24.0319 24.35 27.2749 21.7787 31.066 20.3936C34.8571 19.0086 38.9939 18.8839 42.8615 20.0381C46.7292 21.1922 50.1211 23.5636 52.5333 26.7997C54.9454 30.0358 56.2489 33.9638 56.25 38H45L55.575 57.035Z" fill="#A331B9"/>
</svg>
