<svg width="129" height="155" viewBox="0 0 129 155" fill="none" xmlns="http://www.w3.org/2000/svg">
<g filter="url(#filter0_f_132_367)">
<path d="M29.3396 129.989C29.9004 110.043 26.865 91.9255 24.7809 72.2727C23.7181 62.2503 27.3223 51.9921 29.8098 42.4601C32.3276 32.8119 32.25 32.0771 40.807 28.2992C43.7438 27.0026 53.9976 22.8722 55.4528 26.5942C61.0046 40.7941 72.7464 54.3833 81.5997 66.8508C86.7625 74.1212 90.7002 77.6805 94.7658 85.8231C98.0815 92.4637 101.248 99.1127 104.083 106.08" stroke="#85FC4D" stroke-width="8" stroke-linecap="round"/>
<path d="M29.0283 88.9007C49.2468 89.3476 69.4972 84.9112 89.4639 82.0203" stroke="#85FC4D" stroke-width="8" stroke-linecap="round"/>
<path d="M29.3396 129.989C29.9004 110.043 26.865 91.9255 24.7809 72.2727C23.7181 62.2503 27.3223 51.9921 29.8098 42.4601C32.3276 32.8119 32.25 32.0771 40.807 28.2992C43.7438 27.0026 53.9976 22.8722 55.4528 26.5942C61.0046 40.7941 72.7464 54.3833 81.5997 66.8508C86.7625 74.1212 90.7002 77.6805 94.7658 85.8231C98.0815 92.4637 101.248 99.1127 104.083 106.08" stroke="#85FC4D" stroke-width="9" stroke-linecap="round"/>
<path d="M29.0283 88.9007C49.2468 89.3476 69.4972 84.9112 89.4639 82.0203" stroke="#85FC4D" stroke-width="9" stroke-linecap="round"/>
<path d="M29.3396 129.989C29.9004 110.043 26.865 91.9255 24.7809 72.2727C23.7181 62.2503 27.3223 51.9921 29.8098 42.4601C32.3276 32.8119 32.25 32.0771 40.807 28.2992C43.7438 27.0026 53.9976 22.8722 55.4528 26.5942C61.0046 40.7941 72.7464 54.3833 81.5997 66.8508C86.7625 74.1212 90.7002 77.6805 94.7658 85.8231C98.0815 92.4637 101.248 99.1127 104.083 106.08" stroke="#85FC4D" stroke-width="8" stroke-linecap="round"/>
<path d="M29.0283 88.9007C49.2468 89.3476 69.4972 84.9112 89.4639 82.0203" stroke="#85FC4D" stroke-width="8" stroke-linecap="round"/>
<path d="M29.3396 129.989C29.9004 110.043 26.865 91.9255 24.7809 72.2727C23.7181 62.2503 27.3223 51.9921 29.8098 42.4601C32.3276 32.8119 32.25 32.0771 40.807 28.2992C43.7438 27.0026 53.9976 22.8722 55.4528 26.5942C61.0046 40.7941 72.7464 54.3833 81.5997 66.8508C86.7625 74.1212 90.7002 77.6805 94.7658 85.8231C98.0815 92.4637 101.248 99.1127 104.083 106.08" stroke="#85FC4D" stroke-width="9" stroke-linecap="round"/>
<path d="M29.0283 88.9007C49.2468 89.3476 69.4972 84.9112 89.4639 82.0203" stroke="#85FC4D" stroke-width="9" stroke-linecap="round"/>
</g>
<path d="M29.3396 129.989C29.9004 110.043 26.865 91.9255 24.7809 72.2727C23.7181 62.2503 27.3223 51.9921 29.8098 42.4601C32.3276 32.8119 32.25 32.0771 40.807 28.2992C43.7438 27.0026 53.9976 22.8722 55.4528 26.5942C61.0046 40.7941 72.7464 54.3833 81.5997 66.8508C86.7625 74.1212 90.7002 77.6805 94.7658 85.8231C98.0815 92.4637 101.248 99.1127 104.083 106.08" stroke="#85FC4D" stroke-width="8" stroke-linecap="round"/>
<path d="M29.0283 88.9007C49.2468 89.3476 69.4972 84.9112 89.4639 82.0203" stroke="#85FC4D" stroke-width="8" stroke-linecap="round"/>
<path d="M29.3396 129.989C29.9004 110.043 26.865 91.9255 24.7809 72.2727C23.7181 62.2503 27.3223 51.9921 29.8098 42.4601C32.3276 32.8119 32.25 32.0771 40.807 28.2992C43.7438 27.0026 53.9976 22.8722 55.4528 26.5942C61.0046 40.7941 72.7464 54.3833 81.5997 66.8508C86.7625 74.1212 90.7002 77.6805 94.7658 85.8231C98.0815 92.4637 101.248 99.1127 104.083 106.08" stroke="#85FC4D" stroke-width="9" stroke-linecap="round"/>
<path d="M29.0283 88.9007C49.2468 89.3476 69.4972 84.9112 89.4639 82.0203" stroke="#85FC4D" stroke-width="9" stroke-linecap="round"/>
<path d="M29.3396 129.989C29.9004 110.043 26.865 91.9255 24.7809 72.2727C23.7181 62.2503 27.3223 51.9921 29.8098 42.4601C32.3276 32.8119 32.25 32.0771 40.807 28.2992C43.7438 27.0026 53.9976 22.8722 55.4528 26.5942C61.0046 40.7941 72.7464 54.3833 81.5997 66.8508C86.7625 74.1212 90.7002 77.6805 94.7658 85.8231C98.0815 92.4637 101.248 99.1127 104.083 106.08" stroke="#85FC4D" stroke-width="8" stroke-linecap="round"/>
<path d="M29.0283 88.9007C49.2468 89.3476 69.4972 84.9112 89.4639 82.0203" stroke="#85FC4D" stroke-width="8" stroke-linecap="round"/>
<path d="M29.3396 129.989C29.9004 110.043 26.865 91.9255 24.7809 72.2727C23.7181 62.2503 27.3223 51.9921 29.8098 42.4601C32.3276 32.8119 32.25 32.0771 40.807 28.2992C43.7438 27.0026 53.9976 22.8722 55.4528 26.5942C61.0046 40.7941 72.7464 54.3833 81.5997 66.8508C86.7625 74.1212 90.7002 77.6805 94.7658 85.8231C98.0815 92.4637 101.248 99.1127 104.083 106.08" stroke="#85FC4D" stroke-width="9" stroke-linecap="round"/>
<path d="M29.0283 88.9007C49.2468 89.3476 69.4972 84.9112 89.4639 82.0203" stroke="#85FC4D" stroke-width="9" stroke-linecap="round"/>
<defs>
<filter id="filter0_f_132_367" x="0.0949707" y="0.575439" width="128.489" height="153.915" filterUnits="userSpaceOnUse" color-interpolation-filters="sRGB">
<feFlood flood-opacity="0" result="BackgroundImageFix"/>
<feBlend mode="normal" in="SourceGraphic" in2="BackgroundImageFix" result="shape"/>
<feGaussianBlur stdDeviation="10" result="effect1_foregroundBlur_132_367"/>
</filter>
</defs>
</svg>
