<svg width="104" height="157" viewBox="0 0 104 157" fill="none" xmlns="http://www.w3.org/2000/svg">
<g filter="url(#filter0_f_132_446)">
<path d="M24.7516 91.8303C27.3384 74.183 33.0613 50.3229 44.5836 35.822C48.4955 30.8989 53.1736 24.7507 60.3437 25.4354C68.5255 26.2166 71.3959 36.6204 72.373 43.7016C75.3527 65.2959 74.7909 87.7422 77.2289 109.563C78.002 116.484 79.639 125.126 78.6951 132.202" stroke="#85FC4D" stroke-width="8" stroke-linecap="round"/>
<path d="M27.8892 80.6642C42.7959 84.9749 58.842 89.7974 74.1882 91.8632" stroke="#85FC4D" stroke-width="8" stroke-linecap="round"/>
<path d="M24.7516 91.8303C27.3384 74.183 33.0613 50.3229 44.5836 35.822C48.4955 30.8989 53.1736 24.7507 60.3437 25.4354C68.5255 26.2166 71.3959 36.6204 72.373 43.7016C75.3527 65.2959 74.7909 87.7422 77.2289 109.563C78.002 116.484 79.639 125.126 78.6951 132.202" stroke="#85FC4D" stroke-width="9" stroke-linecap="round"/>
<path d="M27.8892 80.6642C42.7959 84.9749 58.842 89.7974 74.1882 91.8632" stroke="#85FC4D" stroke-width="9" stroke-linecap="round"/>
<path d="M24.7516 91.8303C27.3384 74.183 33.0613 50.3229 44.5836 35.822C48.4955 30.8989 53.1736 24.7507 60.3437 25.4354C68.5255 26.2166 71.3959 36.6204 72.373 43.7016C75.3527 65.2959 74.7909 87.7422 77.2289 109.563C78.002 116.484 79.639 125.126 78.6951 132.202" stroke="#85FC4D" stroke-width="8" stroke-linecap="round"/>
<path d="M27.8892 80.6642C42.7959 84.9749 58.842 89.7974 74.1882 91.8632" stroke="#85FC4D" stroke-width="8" stroke-linecap="round"/>
<path d="M24.7516 91.8303C27.3384 74.183 33.0613 50.3229 44.5836 35.822C48.4955 30.8989 53.1736 24.7507 60.3437 25.4354C68.5255 26.2166 71.3959 36.6204 72.373 43.7016C75.3527 65.2959 74.7909 87.7422 77.2289 109.563C78.002 116.484 79.639 125.126 78.6951 132.202" stroke="#85FC4D" stroke-width="9" stroke-linecap="round"/>
<path d="M27.8892 80.6642C42.7959 84.9749 58.842 89.7974 74.1882 91.8632" stroke="#85FC4D" stroke-width="9" stroke-linecap="round"/>
</g>
<path d="M24.7516 91.8303C27.3384 74.183 33.0613 50.3229 44.5836 35.822C48.4955 30.8989 53.1736 24.7507 60.3437 25.4354C68.5255 26.2166 71.3959 36.6204 72.373 43.7016C75.3527 65.2959 74.7909 87.7422 77.2289 109.563C78.002 116.484 79.639 125.126 78.6951 132.202" stroke="#85FC4D" stroke-width="8" stroke-linecap="round"/>
<path d="M27.8892 80.6642C42.7959 84.9749 58.842 89.7974 74.1882 91.8632" stroke="#85FC4D" stroke-width="8" stroke-linecap="round"/>
<path d="M24.7516 91.8303C27.3384 74.183 33.0613 50.3229 44.5836 35.822C48.4955 30.8989 53.1736 24.7507 60.3437 25.4354C68.5255 26.2166 71.3959 36.6204 72.373 43.7016C75.3527 65.2959 74.7909 87.7422 77.2289 109.563C78.002 116.484 79.639 125.126 78.6951 132.202" stroke="#85FC4D" stroke-width="9" stroke-linecap="round"/>
<path d="M27.8892 80.6642C42.7959 84.9749 58.842 89.7974 74.1882 91.8632" stroke="#85FC4D" stroke-width="9" stroke-linecap="round"/>
<path d="M24.7516 91.8303C27.3384 74.183 33.0613 50.3229 44.5836 35.822C48.4955 30.8989 53.1736 24.7507 60.3437 25.4354C68.5255 26.2166 71.3959 36.6204 72.373 43.7016C75.3527 65.2959 74.7909 87.7422 77.2289 109.563C78.002 116.484 79.639 125.126 78.6951 132.202" stroke="#85FC4D" stroke-width="8" stroke-linecap="round"/>
<path d="M27.8892 80.6642C42.7959 84.9749 58.842 89.7974 74.1882 91.8632" stroke="#85FC4D" stroke-width="8" stroke-linecap="round"/>
<path d="M24.7516 91.8303C27.3384 74.183 33.0613 50.3229 44.5836 35.822C48.4955 30.8989 53.1736 24.7507 60.3437 25.4354C68.5255 26.2166 71.3959 36.6204 72.373 43.7016C75.3527 65.2959 74.7909 87.7422 77.2289 109.563C78.002 116.484 79.639 125.126 78.6951 132.202" stroke="#85FC4D" stroke-width="9" stroke-linecap="round"/>
<path d="M27.8892 80.6642C42.7959 84.9749 58.842 89.7974 74.1882 91.8632" stroke="#85FC4D" stroke-width="9" stroke-linecap="round"/>
<defs>
<filter id="filter0_f_132_446" x="0.251709" y="0.881622" width="103.228" height="155.821" filterUnits="userSpaceOnUse" color-interpolation-filters="sRGB">
<feFlood flood-opacity="0" result="BackgroundImageFix"/>
<feBlend mode="normal" in="SourceGraphic" in2="BackgroundImageFix" result="shape"/>
<feGaussianBlur stdDeviation="10" result="effect1_foregroundBlur_132_446"/>
</filter>
</defs>
</svg>
