<svg width="1155" height="280" viewBox="0 0 1155 280" fill="none" xmlns="http://www.w3.org/2000/svg">
<g filter="url(#filter0_f_164_62)">
<path d="M73.318 108.421C75.8845 128.383 77.0201 148.364 80.0505 168.316C81.5922 178.466 86.1884 187.727 87.9608 197.502C89.2348 204.529 94.8816 223.742 101.341 225.896" stroke="#85FC4D" stroke-width="8" stroke-linecap="round"/>
<path d="M25.4165 137.793C52.5673 133.281 76.6425 120.027 102.577 113.43C108.671 111.88 112.923 102.871 118.641 99.9897" stroke="#85FC4D" stroke-width="8" stroke-linecap="round"/>
<path d="M73.318 108.421C75.8845 128.383 77.0201 148.364 80.0505 168.316C81.5922 178.466 86.1884 187.727 87.9608 197.502C89.2348 204.529 94.8816 223.742 101.341 225.896" stroke="#85FC4D" stroke-width="9" stroke-linecap="round"/>
<path d="M25.4165 137.793C52.5673 133.281 76.6425 120.027 102.577 113.43C108.671 111.88 112.923 102.871 118.641 99.9897" stroke="#85FC4D" stroke-width="9" stroke-linecap="round"/>
<path d="M73.318 108.421C75.8845 128.383 77.0201 148.364 80.0505 168.316C81.5922 178.466 86.1884 187.727 87.9608 197.502C89.2348 204.529 94.8816 223.742 101.341 225.896" stroke="#85FC4D" stroke-width="8" stroke-linecap="round"/>
<path d="M25.4165 137.793C52.5673 133.281 76.6425 120.027 102.577 113.43C108.671 111.88 112.923 102.871 118.641 99.9897" stroke="#85FC4D" stroke-width="8" stroke-linecap="round"/>
<path d="M73.318 108.421C75.8845 128.383 77.0201 148.364 80.0505 168.316C81.5922 178.466 86.1884 187.727 87.9608 197.502C89.2348 204.529 94.8816 223.742 101.341 225.896" stroke="#85FC4D" stroke-width="9" stroke-linecap="round"/>
<path d="M25.4165 137.793C52.5673 133.281 76.6425 120.027 102.577 113.43C108.671 111.88 112.923 102.871 118.641 99.9897" stroke="#85FC4D" stroke-width="9" stroke-linecap="round"/>
<path d="M73.318 108.421C75.8845 128.383 77.0201 148.364 80.0505 168.316C81.5922 178.466 86.1884 187.727 87.9608 197.502C89.2348 204.529 94.8816 223.742 101.341 225.896" stroke="#85FC4D" stroke-width="8" stroke-linecap="round"/>
<path d="M25.4165 137.793C52.5673 133.281 76.6425 120.027 102.577 113.43C108.671 111.88 112.923 102.871 118.641 99.9897" stroke="#85FC4D" stroke-width="8" stroke-linecap="round"/>
<path d="M73.318 108.421C75.8845 128.383 77.0201 148.364 80.0505 168.316C81.5922 178.466 86.1884 187.727 87.9608 197.502C89.2348 204.529 94.8816 223.742 101.341 225.896" stroke="#85FC4D" stroke-width="9" stroke-linecap="round"/>
<path d="M25.4165 137.793C52.5673 133.281 76.6425 120.027 102.577 113.43C108.671 111.88 112.923 102.871 118.641 99.9897" stroke="#85FC4D" stroke-width="9" stroke-linecap="round"/>
<path d="M73.318 108.421C75.8845 128.383 77.0201 148.364 80.0505 168.316C81.5922 178.466 86.1884 187.727 87.9608 197.502C89.2348 204.529 94.8816 223.742 101.341 225.896" stroke="#85FC4D" stroke-width="8" stroke-linecap="round"/>
<path d="M25.4165 137.793C52.5673 133.281 76.6425 120.027 102.577 113.43C108.671 111.88 112.923 102.871 118.641 99.9897" stroke="#85FC4D" stroke-width="8" stroke-linecap="round"/>
<path d="M73.318 108.421C75.8845 128.383 77.0201 148.364 80.0505 168.316C81.5922 178.466 86.1884 187.727 87.9608 197.502C89.2348 204.529 94.8816 223.742 101.341 225.896" stroke="#85FC4D" stroke-width="9" stroke-linecap="round"/>
<path d="M25.4165 137.793C52.5673 133.281 76.6425 120.027 102.577 113.43C108.671 111.88 112.923 102.871 118.641 99.9897" stroke="#85FC4D" stroke-width="9" stroke-linecap="round"/>
</g>
<path d="M73.318 108.421C75.8845 128.383 77.0201 148.364 80.0505 168.316C81.5922 178.466 86.1884 187.727 87.9608 197.502C89.2348 204.529 94.8816 223.742 101.341 225.896" stroke="#85FC4D" stroke-width="8" stroke-linecap="round"/>
<path d="M25.4165 137.793C52.5673 133.281 76.6425 120.027 102.577 113.43C108.671 111.88 112.923 102.871 118.641 99.9897" stroke="#85FC4D" stroke-width="8" stroke-linecap="round"/>
<path d="M73.318 108.421C75.8845 128.383 77.0201 148.364 80.0505 168.316C81.5922 178.466 86.1884 187.727 87.9608 197.502C89.2348 204.529 94.8816 223.742 101.341 225.896" stroke="#85FC4D" stroke-width="9" stroke-linecap="round"/>
<path d="M25.4165 137.793C52.5673 133.281 76.6425 120.027 102.577 113.43C108.671 111.88 112.923 102.871 118.641 99.9897" stroke="#85FC4D" stroke-width="9" stroke-linecap="round"/>
<path d="M73.318 108.421C75.8845 128.383 77.0201 148.364 80.0505 168.316C81.5922 178.466 86.1884 187.727 87.9608 197.502C89.2348 204.529 94.8816 223.742 101.341 225.896" stroke="#85FC4D" stroke-width="8" stroke-linecap="round"/>
<path d="M25.4165 137.793C52.5673 133.281 76.6425 120.027 102.577 113.43C108.671 111.88 112.923 102.871 118.641 99.9897" stroke="#85FC4D" stroke-width="8" stroke-linecap="round"/>
<path d="M73.318 108.421C75.8845 128.383 77.0201 148.364 80.0505 168.316C81.5922 178.466 86.1884 187.727 87.9608 197.502C89.2348 204.529 94.8816 223.742 101.341 225.896" stroke="#85FC4D" stroke-width="9" stroke-linecap="round"/>
<path d="M25.4165 137.793C52.5673 133.281 76.6425 120.027 102.577 113.43C108.671 111.88 112.923 102.871 118.641 99.9897" stroke="#85FC4D" stroke-width="9" stroke-linecap="round"/>
<path d="M73.318 108.421C75.8845 128.383 77.0201 148.364 80.0505 168.316C81.5922 178.466 86.1884 187.727 87.9608 197.502C89.2348 204.529 94.8816 223.742 101.341 225.896" stroke="#85FC4D" stroke-width="8" stroke-linecap="round"/>
<path d="M25.4165 137.793C52.5673 133.281 76.6425 120.027 102.577 113.43C108.671 111.88 112.923 102.871 118.641 99.9897" stroke="#85FC4D" stroke-width="8" stroke-linecap="round"/>
<path d="M73.318 108.421C75.8845 128.383 77.0201 148.364 80.0505 168.316C81.5922 178.466 86.1884 187.727 87.9608 197.502C89.2348 204.529 94.8816 223.742 101.341 225.896" stroke="#85FC4D" stroke-width="9" stroke-linecap="round"/>
<path d="M25.4165 137.793C52.5673 133.281 76.6425 120.027 102.577 113.43C108.671 111.88 112.923 102.871 118.641 99.9897" stroke="#85FC4D" stroke-width="9" stroke-linecap="round"/>
<path d="M73.318 108.421C75.8845 128.383 77.0201 148.364 80.0505 168.316C81.5922 178.466 86.1884 187.727 87.9608 197.502C89.2348 204.529 94.8816 223.742 101.341 225.896" stroke="#85FC4D" stroke-width="8" stroke-linecap="round"/>
<path d="M25.4165 137.793C52.5673 133.281 76.6425 120.027 102.577 113.43C108.671 111.88 112.923 102.871 118.641 99.9897" stroke="#85FC4D" stroke-width="8" stroke-linecap="round"/>
<path d="M73.318 108.421C75.8845 128.383 77.0201 148.364 80.0505 168.316C81.5922 178.466 86.1884 187.727 87.9608 197.502C89.2348 204.529 94.8816 223.742 101.341 225.896" stroke="#85FC4D" stroke-width="9" stroke-linecap="round"/>
<path d="M25.4165 137.793C52.5673 133.281 76.6425 120.027 102.577 113.43C108.671 111.88 112.923 102.871 118.641 99.9897" stroke="#85FC4D" stroke-width="9" stroke-linecap="round"/>
<g filter="url(#filter1_f_164_62)">
<path d="M164.34 184.989C164.9 165.043 161.865 146.926 159.781 127.273C158.718 117.25 162.322 106.992 164.81 97.4601C167.328 87.8119 167.25 87.0771 175.807 83.2992C178.744 82.0026 188.998 77.8722 190.453 81.5942C196.005 95.7941 207.746 109.383 216.6 121.851C221.762 129.121 225.7 132.68 229.766 140.823C233.082 147.464 236.248 154.113 239.083 161.08" stroke="#85FC4D" stroke-width="8" stroke-linecap="round"/>
<path d="M164.028 143.901C184.247 144.348 204.497 139.911 224.464 137.02" stroke="#85FC4D" stroke-width="8" stroke-linecap="round"/>
<path d="M164.34 184.989C164.9 165.043 161.865 146.926 159.781 127.273C158.718 117.25 162.322 106.992 164.81 97.4601C167.328 87.8119 167.25 87.0771 175.807 83.2992C178.744 82.0026 188.998 77.8722 190.453 81.5942C196.005 95.7941 207.746 109.383 216.6 121.851C221.762 129.121 225.7 132.68 229.766 140.823C233.082 147.464 236.248 154.113 239.083 161.08" stroke="#85FC4D" stroke-width="9" stroke-linecap="round"/>
<path d="M164.028 143.901C184.247 144.348 204.497 139.911 224.464 137.02" stroke="#85FC4D" stroke-width="9" stroke-linecap="round"/>
<path d="M164.34 184.989C164.9 165.043 161.865 146.926 159.781 127.273C158.718 117.25 162.322 106.992 164.81 97.4601C167.328 87.8119 167.25 87.0771 175.807 83.2992C178.744 82.0026 188.998 77.8722 190.453 81.5942C196.005 95.7941 207.746 109.383 216.6 121.851C221.762 129.121 225.7 132.68 229.766 140.823C233.082 147.464 236.248 154.113 239.083 161.08" stroke="#85FC4D" stroke-width="8" stroke-linecap="round"/>
<path d="M164.028 143.901C184.247 144.348 204.497 139.911 224.464 137.02" stroke="#85FC4D" stroke-width="8" stroke-linecap="round"/>
<path d="M164.34 184.989C164.9 165.043 161.865 146.926 159.781 127.273C158.718 117.25 162.322 106.992 164.81 97.4601C167.328 87.8119 167.25 87.0771 175.807 83.2992C178.744 82.0026 188.998 77.8722 190.453 81.5942C196.005 95.7941 207.746 109.383 216.6 121.851C221.762 129.121 225.7 132.68 229.766 140.823C233.082 147.464 236.248 154.113 239.083 161.08" stroke="#85FC4D" stroke-width="9" stroke-linecap="round"/>
<path d="M164.028 143.901C184.247 144.348 204.497 139.911 224.464 137.02" stroke="#85FC4D" stroke-width="9" stroke-linecap="round"/>
</g>
<path d="M164.34 184.989C164.9 165.043 161.865 146.926 159.781 127.273C158.718 117.25 162.322 106.992 164.81 97.4601C167.328 87.8119 167.25 87.0771 175.807 83.2992C178.744 82.0026 188.998 77.8722 190.453 81.5942C196.005 95.7941 207.746 109.383 216.6 121.851C221.762 129.121 225.7 132.68 229.766 140.823C233.082 147.464 236.248 154.113 239.083 161.08" stroke="#85FC4D" stroke-width="8" stroke-linecap="round"/>
<path d="M164.028 143.901C184.247 144.348 204.497 139.911 224.464 137.02" stroke="#85FC4D" stroke-width="8" stroke-linecap="round"/>
<path d="M164.34 184.989C164.9 165.043 161.865 146.926 159.781 127.273C158.718 117.25 162.322 106.992 164.81 97.4601C167.328 87.8119 167.25 87.0771 175.807 83.2992C178.744 82.0026 188.998 77.8722 190.453 81.5942C196.005 95.7941 207.746 109.383 216.6 121.851C221.762 129.121 225.7 132.68 229.766 140.823C233.082 147.464 236.248 154.113 239.083 161.08" stroke="#85FC4D" stroke-width="9" stroke-linecap="round"/>
<path d="M164.028 143.901C184.247 144.348 204.497 139.911 224.464 137.02" stroke="#85FC4D" stroke-width="9" stroke-linecap="round"/>
<path d="M164.34 184.989C164.9 165.043 161.865 146.926 159.781 127.273C158.718 117.25 162.322 106.992 164.81 97.4601C167.328 87.8119 167.25 87.0771 175.807 83.2992C178.744 82.0026 188.998 77.8722 190.453 81.5942C196.005 95.7941 207.746 109.383 216.6 121.851C221.762 129.121 225.7 132.68 229.766 140.823C233.082 147.464 236.248 154.113 239.083 161.08" stroke="#85FC4D" stroke-width="8" stroke-linecap="round"/>
<path d="M164.028 143.901C184.247 144.348 204.497 139.911 224.464 137.02" stroke="#85FC4D" stroke-width="8" stroke-linecap="round"/>
<path d="M164.34 184.989C164.9 165.043 161.865 146.926 159.781 127.273C158.718 117.25 162.322 106.992 164.81 97.4601C167.328 87.8119 167.25 87.0771 175.807 83.2992C178.744 82.0026 188.998 77.8722 190.453 81.5942C196.005 95.7941 207.746 109.383 216.6 121.851C221.762 129.121 225.7 132.68 229.766 140.823C233.082 147.464 236.248 154.113 239.083 161.08" stroke="#85FC4D" stroke-width="9" stroke-linecap="round"/>
<path d="M164.028 143.901C184.247 144.348 204.497 139.911 224.464 137.02" stroke="#85FC4D" stroke-width="9" stroke-linecap="round"/>
<g filter="url(#filter2_f_164_62)">
<path d="M481.137 25C481.137 49.456 481.96 74.0628 480.411 98.4725C479.369 114.891 476.237 131.604 476.237 148.062" stroke="#85FC4D" stroke-width="8" stroke-linecap="round"/>
<path d="M430.501 41.4083C463.108 44.4411 494.743 46.3307 527.509 46.3307C532.957 46.3307 538.04 44.6899 543.208 44.6899" stroke="#85FC4D" stroke-width="8" stroke-linecap="round"/>
<path d="M481.137 25C481.137 49.456 481.96 74.0628 480.411 98.4725C479.369 114.891 476.237 131.604 476.237 148.062" stroke="#85FC4D" stroke-width="9" stroke-linecap="round"/>
<path d="M430.501 41.4083C463.108 44.4411 494.743 46.3307 527.509 46.3307C532.957 46.3307 538.04 44.6899 543.208 44.6899" stroke="#85FC4D" stroke-width="9" stroke-linecap="round"/>
<path d="M481.137 25C481.137 49.456 481.96 74.0628 480.411 98.4725C479.369 114.891 476.237 131.604 476.237 148.062" stroke="#85FC4D" stroke-width="8" stroke-linecap="round"/>
<path d="M430.501 41.4083C463.108 44.4411 494.743 46.3307 527.509 46.3307C532.957 46.3307 538.04 44.6899 543.208 44.6899" stroke="#85FC4D" stroke-width="8" stroke-linecap="round"/>
<path d="M481.137 25C481.137 49.456 481.96 74.0628 480.411 98.4725C479.369 114.891 476.237 131.604 476.237 148.062" stroke="#85FC4D" stroke-width="9" stroke-linecap="round"/>
<path d="M430.501 41.4083C463.108 44.4411 494.743 46.3307 527.509 46.3307C532.957 46.3307 538.04 44.6899 543.208 44.6899" stroke="#85FC4D" stroke-width="9" stroke-linecap="round"/>
</g>
<path d="M481.137 25C481.137 49.456 481.96 74.0628 480.411 98.4725C479.369 114.891 476.237 131.604 476.237 148.062" stroke="#85FC4D" stroke-width="8" stroke-linecap="round"/>
<path d="M430.501 41.4083C463.108 44.4411 494.743 46.3307 527.509 46.3307C532.957 46.3307 538.04 44.6899 543.208 44.6899" stroke="#85FC4D" stroke-width="8" stroke-linecap="round"/>
<path d="M481.137 25C481.137 49.456 481.96 74.0628 480.411 98.4725C479.369 114.891 476.237 131.604 476.237 148.062" stroke="#85FC4D" stroke-width="9" stroke-linecap="round"/>
<path d="M430.501 41.4083C463.108 44.4411 494.743 46.3307 527.509 46.3307C532.957 46.3307 538.04 44.6899 543.208 44.6899" stroke="#85FC4D" stroke-width="9" stroke-linecap="round"/>
<path d="M481.137 25C481.137 49.456 481.96 74.0628 480.411 98.4725C479.369 114.891 476.237 131.604 476.237 148.062" stroke="#85FC4D" stroke-width="8" stroke-linecap="round"/>
<path d="M430.501 41.4083C463.108 44.4411 494.743 46.3307 527.509 46.3307C532.957 46.3307 538.04 44.6899 543.208 44.6899" stroke="#85FC4D" stroke-width="8" stroke-linecap="round"/>
<path d="M481.137 25C481.137 49.456 481.96 74.0628 480.411 98.4725C479.369 114.891 476.237 131.604 476.237 148.062" stroke="#85FC4D" stroke-width="9" stroke-linecap="round"/>
<path d="M430.501 41.4083C463.108 44.4411 494.743 46.3307 527.509 46.3307C532.957 46.3307 538.04 44.6899 543.208 44.6899" stroke="#85FC4D" stroke-width="9" stroke-linecap="round"/>
<g filter="url(#filter3_f_164_62)">
<path d="M562.809 77.5064C552.675 75.6125 541.323 74.7557 531.047 76.2302C512.606 78.8765 505.99 109.247 503.37 124.452C501.617 134.623 501.614 159.548 516.709 159.548C537.23 159.548 566.678 147.424 570.885 124.179C573.353 110.545 563.071 101.113 551.375 97.1963" stroke="#85FC4D" stroke-width="8" stroke-linecap="round"/>
<path d="M562.809 77.5064C552.675 75.6125 541.323 74.7557 531.047 76.2302C512.606 78.8765 505.99 109.247 503.37 124.452C501.617 134.623 501.614 159.548 516.709 159.548C537.23 159.548 566.678 147.424 570.885 124.179C573.353 110.545 563.071 101.113 551.375 97.1963" stroke="#85FC4D" stroke-width="9" stroke-linecap="round"/>
<path d="M562.809 77.5064C552.675 75.6125 541.323 74.7557 531.047 76.2302C512.606 78.8765 505.99 109.247 503.37 124.452C501.617 134.623 501.614 159.548 516.709 159.548C537.23 159.548 566.678 147.424 570.885 124.179C573.353 110.545 563.071 101.113 551.375 97.1963" stroke="#85FC4D" stroke-width="8" stroke-linecap="round"/>
<path d="M562.809 77.5064C552.675 75.6125 541.323 74.7557 531.047 76.2302C512.606 78.8765 505.99 109.247 503.37 124.452C501.617 134.623 501.614 159.548 516.709 159.548C537.23 159.548 566.678 147.424 570.885 124.179C573.353 110.545 563.071 101.113 551.375 97.1963" stroke="#85FC4D" stroke-width="9" stroke-linecap="round"/>
</g>
<path d="M562.809 77.5064C552.675 75.6125 541.323 74.7557 531.047 76.2302C512.606 78.8765 505.99 109.247 503.37 124.452C501.617 134.623 501.614 159.548 516.709 159.548C537.23 159.548 566.678 147.424 570.885 124.179C573.353 110.545 563.071 101.113 551.375 97.1963" stroke="#85FC4D" stroke-width="8" stroke-linecap="round"/>
<path d="M562.809 77.5064C552.675 75.6125 541.323 74.7557 531.047 76.2302C512.606 78.8765 505.99 109.247 503.37 124.452C501.617 134.623 501.614 159.548 516.709 159.548C537.23 159.548 566.678 147.424 570.885 124.179C573.353 110.545 563.071 101.113 551.375 97.1963" stroke="#85FC4D" stroke-width="9" stroke-linecap="round"/>
<path d="M562.809 77.5064C552.675 75.6125 541.323 74.7557 531.047 76.2302C512.606 78.8765 505.99 109.247 503.37 124.452C501.617 134.623 501.614 159.548 516.709 159.548C537.23 159.548 566.678 147.424 570.885 124.179C573.353 110.545 563.071 101.113 551.375 97.1963" stroke="#85FC4D" stroke-width="8" stroke-linecap="round"/>
<path d="M562.809 77.5064C552.675 75.6125 541.323 74.7557 531.047 76.2302C512.606 78.8765 505.99 109.247 503.37 124.452C501.617 134.623 501.614 159.548 516.709 159.548C537.23 159.548 566.678 147.424 570.885 124.179C573.353 110.545 563.071 101.113 551.375 97.1963" stroke="#85FC4D" stroke-width="9" stroke-linecap="round"/>
<g filter="url(#filter4_f_164_62)">
<path d="M764.567 85.5541C751.299 69.1254 703.49 49.2464 699.158 81.7156C698.018 90.2653 699.809 99.6074 710.083 101.397C730.844 105.012 750.28 118.183 771.115 122.948C778.455 124.627 788.082 132.146 793.083 137.402C794.772 139.177 792.913 145.537 792.183 147.582C788.948 156.644 779.911 153.839 772.169 152.797C760.935 151.285 750.388 148.242 739.642 144.74C716.513 137.202 695.096 133.964 670.741 134.821C664.223 135.05 659.58 137.096 653.366 138.092C647.453 139.04 640.179 136.685 634.25 135.887" stroke="#85FC4D" stroke-width="8" stroke-linecap="round"/>
<path d="M764.567 85.5541C751.299 69.1254 703.49 49.2464 699.158 81.7156C698.018 90.2653 699.809 99.6074 710.083 101.397C730.844 105.012 750.28 118.183 771.115 122.948C778.455 124.627 788.082 132.146 793.083 137.402C794.772 139.177 792.913 145.537 792.183 147.582C788.948 156.644 779.911 153.839 772.169 152.797C760.935 151.285 750.388 148.242 739.642 144.74C716.513 137.202 695.096 133.964 670.741 134.821C664.223 135.05 659.58 137.096 653.366 138.092C647.453 139.04 640.179 136.685 634.25 135.887" stroke="#85FC4D" stroke-width="9" stroke-linecap="round"/>
<path d="M764.567 85.5541C751.299 69.1254 703.49 49.2464 699.158 81.7156C698.018 90.2653 699.809 99.6074 710.083 101.397C730.844 105.012 750.28 118.183 771.115 122.948C778.455 124.627 788.082 132.146 793.083 137.402C794.772 139.177 792.913 145.537 792.183 147.582C788.948 156.644 779.911 153.839 772.169 152.797C760.935 151.285 750.388 148.242 739.642 144.74C716.513 137.202 695.096 133.964 670.741 134.821C664.223 135.05 659.58 137.096 653.366 138.092C647.453 139.04 640.179 136.685 634.25 135.887" stroke="#85FC4D" stroke-width="8" stroke-linecap="round"/>
<path d="M764.567 85.5541C751.299 69.1254 703.49 49.2464 699.158 81.7156C698.018 90.2653 699.809 99.6074 710.083 101.397C730.844 105.012 750.28 118.183 771.115 122.948C778.455 124.627 788.082 132.146 793.083 137.402C794.772 139.177 792.913 145.537 792.183 147.582C788.948 156.644 779.911 153.839 772.169 152.797C760.935 151.285 750.388 148.242 739.642 144.74C716.513 137.202 695.096 133.964 670.741 134.821C664.223 135.05 659.58 137.096 653.366 138.092C647.453 139.04 640.179 136.685 634.25 135.887" stroke="#85FC4D" stroke-width="9" stroke-linecap="round"/>
</g>
<path d="M764.567 85.5541C751.299 69.1254 703.49 49.2464 699.158 81.7156C698.018 90.2653 699.809 99.6074 710.083 101.397C730.844 105.012 750.28 118.183 771.115 122.948C778.455 124.627 788.082 132.146 793.083 137.402C794.772 139.177 792.913 145.537 792.183 147.582C788.948 156.644 779.911 153.839 772.169 152.797C760.935 151.285 750.388 148.242 739.642 144.74C716.513 137.202 695.096 133.964 670.741 134.821C664.223 135.05 659.58 137.096 653.366 138.092C647.453 139.04 640.179 136.685 634.25 135.887" stroke="#85FC4D" stroke-width="8" stroke-linecap="round"/>
<path d="M764.567 85.5541C751.299 69.1254 703.49 49.2464 699.158 81.7156C698.018 90.2653 699.809 99.6074 710.083 101.397C730.844 105.012 750.28 118.183 771.115 122.948C778.455 124.627 788.082 132.146 793.083 137.402C794.772 139.177 792.913 145.537 792.183 147.582C788.948 156.644 779.911 153.839 772.169 152.797C760.935 151.285 750.388 148.242 739.642 144.74C716.513 137.202 695.096 133.964 670.741 134.821C664.223 135.05 659.58 137.096 653.366 138.092C647.453 139.04 640.179 136.685 634.25 135.887" stroke="#85FC4D" stroke-width="9" stroke-linecap="round"/>
<path d="M764.567 85.5541C751.299 69.1254 703.49 49.2464 699.158 81.7156C698.018 90.2653 699.809 99.6074 710.083 101.397C730.844 105.012 750.28 118.183 771.115 122.948C778.455 124.627 788.082 132.146 793.083 137.402C794.772 139.177 792.913 145.537 792.183 147.582C788.948 156.644 779.911 153.839 772.169 152.797C760.935 151.285 750.388 148.242 739.642 144.74C716.513 137.202 695.096 133.964 670.741 134.821C664.223 135.05 659.58 137.096 653.366 138.092C647.453 139.04 640.179 136.685 634.25 135.887" stroke="#85FC4D" stroke-width="8" stroke-linecap="round"/>
<path d="M764.567 85.5541C751.299 69.1254 703.49 49.2464 699.158 81.7156C698.018 90.2653 699.809 99.6074 710.083 101.397C730.844 105.012 750.28 118.183 771.115 122.948C778.455 124.627 788.082 132.146 793.083 137.402C794.772 139.177 792.913 145.537 792.183 147.582C788.948 156.644 779.911 153.839 772.169 152.797C760.935 151.285 750.388 148.242 739.642 144.74C716.513 137.202 695.096 133.964 670.741 134.821C664.223 135.05 659.58 137.096 653.366 138.092C647.453 139.04 640.179 136.685 634.25 135.887" stroke="#85FC4D" stroke-width="9" stroke-linecap="round"/>
<g filter="url(#filter5_f_164_62)">
<path d="M830.41 86.1401C825.224 103.079 819.54 118.212 817.209 135.683C816.197 143.273 815.184 150.862 814.172 158.451" stroke="#85FC4D" stroke-width="8" stroke-linecap="round"/>
<path d="M792.206 76.0308C809.467 86.2833 825.896 90.4989 845.589 93.1498C851.98 94.0101 863.298 97.0076 867.964 101.128" stroke="#85FC4D" stroke-width="8" stroke-linecap="round"/>
<path d="M830.41 86.1401C825.224 103.079 819.54 118.212 817.209 135.683C816.197 143.273 815.184 150.862 814.172 158.451" stroke="#85FC4D" stroke-width="9" stroke-linecap="round"/>
<path d="M792.206 76.0308C809.467 86.2833 825.896 90.4989 845.589 93.1498C851.98 94.0101 863.298 97.0076 867.964 101.128" stroke="#85FC4D" stroke-width="9" stroke-linecap="round"/>
<path d="M830.41 86.1401C825.224 103.079 819.54 118.212 817.209 135.683C816.197 143.273 815.184 150.862 814.172 158.451" stroke="#85FC4D" stroke-width="8" stroke-linecap="round"/>
<path d="M792.206 76.0308C809.467 86.2833 825.896 90.4989 845.589 93.1498C851.98 94.0101 863.298 97.0076 867.964 101.128" stroke="#85FC4D" stroke-width="8" stroke-linecap="round"/>
<path d="M830.41 86.1401C825.224 103.079 819.54 118.212 817.209 135.683C816.197 143.273 815.184 150.862 814.172 158.451" stroke="#85FC4D" stroke-width="9" stroke-linecap="round"/>
<path d="M792.206 76.0308C809.467 86.2833 825.896 90.4989 845.589 93.1498C851.98 94.0101 863.298 97.0076 867.964 101.128" stroke="#85FC4D" stroke-width="9" stroke-linecap="round"/>
</g>
<path d="M830.41 86.1401C825.224 103.079 819.54 118.212 817.209 135.683C816.197 143.273 815.184 150.862 814.172 158.451" stroke="#85FC4D" stroke-width="8" stroke-linecap="round"/>
<path d="M792.206 76.0308C809.467 86.2833 825.896 90.4989 845.589 93.1498C851.98 94.0101 863.298 97.0076 867.964 101.128" stroke="#85FC4D" stroke-width="8" stroke-linecap="round"/>
<path d="M830.41 86.1401C825.224 103.079 819.54 118.212 817.209 135.683C816.197 143.273 815.184 150.862 814.172 158.451" stroke="#85FC4D" stroke-width="9" stroke-linecap="round"/>
<path d="M792.206 76.0308C809.467 86.2833 825.896 90.4989 845.589 93.1498C851.98 94.0101 863.298 97.0076 867.964 101.128" stroke="#85FC4D" stroke-width="9" stroke-linecap="round"/>
<path d="M830.41 86.1401C825.224 103.079 819.54 118.212 817.209 135.683C816.197 143.273 815.184 150.862 814.172 158.451" stroke="#85FC4D" stroke-width="8" stroke-linecap="round"/>
<path d="M792.206 76.0308C809.467 86.2833 825.896 90.4989 845.589 93.1498C851.98 94.0101 863.298 97.0076 867.964 101.128" stroke="#85FC4D" stroke-width="8" stroke-linecap="round"/>
<path d="M830.41 86.1401C825.224 103.079 819.54 118.212 817.209 135.683C816.197 143.273 815.184 150.862 814.172 158.451" stroke="#85FC4D" stroke-width="9" stroke-linecap="round"/>
<path d="M792.206 76.0308C809.467 86.2833 825.896 90.4989 845.589 93.1498C851.98 94.0101 863.298 97.0076 867.964 101.128" stroke="#85FC4D" stroke-width="9" stroke-linecap="round"/>
<g filter="url(#filter6_f_164_62)">
<path d="M858.752 157.83C861.338 140.183 867.061 116.323 878.584 101.822C882.495 96.8989 887.174 90.7507 894.344 91.4354C902.526 92.2166 905.396 102.62 906.373 109.702C909.353 131.296 908.791 153.742 911.229 175.563C912.002 182.484 913.639 191.126 912.695 198.202" stroke="#85FC4D" stroke-width="8" stroke-linecap="round"/>
<path d="M861.889 146.664C876.796 150.975 892.842 155.797 908.188 157.863" stroke="#85FC4D" stroke-width="8" stroke-linecap="round"/>
<path d="M858.752 157.83C861.338 140.183 867.061 116.323 878.584 101.822C882.495 96.8989 887.174 90.7507 894.344 91.4354C902.526 92.2166 905.396 102.62 906.373 109.702C909.353 131.296 908.791 153.742 911.229 175.563C912.002 182.484 913.639 191.126 912.695 198.202" stroke="#85FC4D" stroke-width="9" stroke-linecap="round"/>
<path d="M861.889 146.664C876.796 150.975 892.842 155.797 908.188 157.863" stroke="#85FC4D" stroke-width="9" stroke-linecap="round"/>
<path d="M858.752 157.83C861.338 140.183 867.061 116.323 878.584 101.822C882.495 96.8989 887.174 90.7507 894.344 91.4354C902.526 92.2166 905.396 102.62 906.373 109.702C909.353 131.296 908.791 153.742 911.229 175.563C912.002 182.484 913.639 191.126 912.695 198.202" stroke="#85FC4D" stroke-width="8" stroke-linecap="round"/>
<path d="M861.889 146.664C876.796 150.975 892.842 155.797 908.188 157.863" stroke="#85FC4D" stroke-width="8" stroke-linecap="round"/>
<path d="M858.752 157.83C861.338 140.183 867.061 116.323 878.584 101.822C882.495 96.8989 887.174 90.7507 894.344 91.4354C902.526 92.2166 905.396 102.62 906.373 109.702C909.353 131.296 908.791 153.742 911.229 175.563C912.002 182.484 913.639 191.126 912.695 198.202" stroke="#85FC4D" stroke-width="9" stroke-linecap="round"/>
<path d="M861.889 146.664C876.796 150.975 892.842 155.797 908.188 157.863" stroke="#85FC4D" stroke-width="9" stroke-linecap="round"/>
</g>
<path d="M858.752 157.83C861.338 140.183 867.061 116.323 878.584 101.822C882.495 96.8989 887.174 90.7507 894.344 91.4354C902.526 92.2166 905.396 102.62 906.373 109.702C909.353 131.296 908.791 153.742 911.229 175.563C912.002 182.484 913.639 191.126 912.695 198.202" stroke="#85FC4D" stroke-width="8" stroke-linecap="round"/>
<path d="M861.889 146.664C876.796 150.975 892.842 155.797 908.188 157.863" stroke="#85FC4D" stroke-width="8" stroke-linecap="round"/>
<path d="M858.752 157.83C861.338 140.183 867.061 116.323 878.584 101.822C882.495 96.8989 887.174 90.7507 894.344 91.4354C902.526 92.2166 905.396 102.62 906.373 109.702C909.353 131.296 908.791 153.742 911.229 175.563C912.002 182.484 913.639 191.126 912.695 198.202" stroke="#85FC4D" stroke-width="9" stroke-linecap="round"/>
<path d="M861.889 146.664C876.796 150.975 892.842 155.797 908.188 157.863" stroke="#85FC4D" stroke-width="9" stroke-linecap="round"/>
<path d="M858.752 157.83C861.338 140.183 867.061 116.323 878.584 101.822C882.495 96.8989 887.174 90.7507 894.344 91.4354C902.526 92.2166 905.396 102.62 906.373 109.702C909.353 131.296 908.791 153.742 911.229 175.563C912.002 182.484 913.639 191.126 912.695 198.202" stroke="#85FC4D" stroke-width="8" stroke-linecap="round"/>
<path d="M861.889 146.664C876.796 150.975 892.842 155.797 908.188 157.863" stroke="#85FC4D" stroke-width="8" stroke-linecap="round"/>
<path d="M858.752 157.83C861.338 140.183 867.061 116.323 878.584 101.822C882.495 96.8989 887.174 90.7507 894.344 91.4354C902.526 92.2166 905.396 102.62 906.373 109.702C909.353 131.296 908.791 153.742 911.229 175.563C912.002 182.484 913.639 191.126 912.695 198.202" stroke="#85FC4D" stroke-width="9" stroke-linecap="round"/>
<path d="M861.889 146.664C876.796 150.975 892.842 155.797 908.188 157.863" stroke="#85FC4D" stroke-width="9" stroke-linecap="round"/>
<g filter="url(#filter7_f_164_62)">
<path d="M973.947 122.017C971.997 136.638 971.058 151.89 967.322 166.191C964.7 176.227 960.094 185.742 957.606 195.786C956.518 200.176 956.757 203.568 954.354 207.121" stroke="#85FC4D" stroke-width="8" stroke-linecap="round"/>
<path d="M969.191 132.965C978.132 132.509 986.496 133.639 995.311 134.826C1005.52 136.201 1012.45 137.857 1013.29 148.283C1013.69 153.205 1019.78 178.085 1014.49 181.186C1009.48 184.118 997.86 179.867 991.882 179.063C987.295 178.445 982.708 177.828 978.121 177.21C972.402 176.44 983.117 191.278 984.777 194.569C989.809 204.543 1000.98 211.742 1003.24 223.634" stroke="#85FC4D" stroke-width="8" stroke-linecap="round"/>
<path d="M973.947 122.017C971.997 136.638 971.058 151.89 967.322 166.191C964.7 176.227 960.094 185.742 957.606 195.786C956.518 200.176 956.757 203.568 954.354 207.121" stroke="#85FC4D" stroke-width="9" stroke-linecap="round"/>
<path d="M969.191 132.965C978.132 132.509 986.496 133.639 995.311 134.826C1005.52 136.201 1012.45 137.857 1013.29 148.283C1013.69 153.205 1019.78 178.085 1014.49 181.186C1009.48 184.118 997.86 179.867 991.882 179.063C987.295 178.445 982.708 177.828 978.121 177.21C972.402 176.44 983.117 191.278 984.777 194.569C989.809 204.543 1000.98 211.742 1003.24 223.634" stroke="#85FC4D" stroke-width="9" stroke-linecap="round"/>
<path d="M973.947 122.017C971.997 136.638 971.058 151.89 967.322 166.191C964.7 176.227 960.094 185.742 957.606 195.786C956.518 200.176 956.757 203.568 954.354 207.121" stroke="#85FC4D" stroke-width="8" stroke-linecap="round"/>
<path d="M969.191 132.965C978.132 132.509 986.496 133.639 995.311 134.826C1005.52 136.201 1012.45 137.857 1013.29 148.283C1013.69 153.205 1019.78 178.085 1014.49 181.186C1009.48 184.118 997.86 179.867 991.882 179.063C987.295 178.445 982.708 177.828 978.121 177.21C972.402 176.44 983.117 191.278 984.777 194.569C989.809 204.543 1000.98 211.742 1003.24 223.634" stroke="#85FC4D" stroke-width="8" stroke-linecap="round"/>
<path d="M973.947 122.017C971.997 136.638 971.058 151.89 967.322 166.191C964.7 176.227 960.094 185.742 957.606 195.786C956.518 200.176 956.757 203.568 954.354 207.121" stroke="#85FC4D" stroke-width="9" stroke-linecap="round"/>
<path d="M969.191 132.965C978.132 132.509 986.496 133.639 995.311 134.826C1005.52 136.201 1012.45 137.857 1013.29 148.283C1013.69 153.205 1019.78 178.085 1014.49 181.186C1009.48 184.118 997.86 179.867 991.882 179.063C987.295 178.445 982.708 177.828 978.121 177.21C972.402 176.44 983.117 191.278 984.777 194.569C989.809 204.543 1000.98 211.742 1003.24 223.634" stroke="#85FC4D" stroke-width="9" stroke-linecap="round"/>
</g>
<path d="M973.947 122.017C971.997 136.638 971.058 151.89 967.322 166.191C964.7 176.227 960.094 185.742 957.606 195.786C956.518 200.176 956.757 203.568 954.354 207.121" stroke="#85FC4D" stroke-width="8" stroke-linecap="round"/>
<path d="M969.191 132.965C978.132 132.509 986.496 133.639 995.311 134.826C1005.52 136.201 1012.45 137.857 1013.29 148.283C1013.69 153.205 1019.78 178.085 1014.49 181.186C1009.48 184.118 997.86 179.867 991.882 179.063C987.295 178.445 982.708 177.828 978.121 177.21C972.402 176.44 983.117 191.278 984.777 194.569C989.809 204.543 1000.98 211.742 1003.24 223.634" stroke="#85FC4D" stroke-width="8" stroke-linecap="round"/>
<path d="M973.947 122.017C971.997 136.638 971.058 151.89 967.322 166.191C964.7 176.227 960.094 185.742 957.606 195.786C956.518 200.176 956.757 203.568 954.354 207.121" stroke="#85FC4D" stroke-width="9" stroke-linecap="round"/>
<path d="M969.191 132.965C978.132 132.509 986.496 133.639 995.311 134.826C1005.52 136.201 1012.45 137.857 1013.29 148.283C1013.69 153.205 1019.78 178.085 1014.49 181.186C1009.48 184.118 997.86 179.867 991.882 179.063C987.295 178.445 982.708 177.828 978.121 177.21C972.402 176.44 983.117 191.278 984.777 194.569C989.809 204.543 1000.98 211.742 1003.24 223.634" stroke="#85FC4D" stroke-width="9" stroke-linecap="round"/>
<path d="M973.947 122.017C971.997 136.638 971.058 151.89 967.322 166.191C964.7 176.227 960.094 185.742 957.606 195.786C956.518 200.176 956.757 203.568 954.354 207.121" stroke="#85FC4D" stroke-width="8" stroke-linecap="round"/>
<path d="M969.191 132.965C978.132 132.509 986.496 133.639 995.311 134.826C1005.52 136.201 1012.45 137.857 1013.29 148.283C1013.69 153.205 1019.78 178.085 1014.49 181.186C1009.48 184.118 997.86 179.867 991.882 179.063C987.295 178.445 982.708 177.828 978.121 177.21C972.402 176.44 983.117 191.278 984.777 194.569C989.809 204.543 1000.98 211.742 1003.24 223.634" stroke="#85FC4D" stroke-width="8" stroke-linecap="round"/>
<path d="M973.947 122.017C971.997 136.638 971.058 151.89 967.322 166.191C964.7 176.227 960.094 185.742 957.606 195.786C956.518 200.176 956.757 203.568 954.354 207.121" stroke="#85FC4D" stroke-width="9" stroke-linecap="round"/>
<path d="M969.191 132.965C978.132 132.509 986.496 133.639 995.311 134.826C1005.52 136.201 1012.45 137.857 1013.29 148.283C1013.69 153.205 1019.78 178.085 1014.49 181.186C1009.48 184.118 997.86 179.867 991.882 179.063C987.295 178.445 982.708 177.828 978.121 177.21C972.402 176.44 983.117 191.278 984.777 194.569C989.809 204.543 1000.98 211.742 1003.24 223.634" stroke="#85FC4D" stroke-width="9" stroke-linecap="round"/>
<g filter="url(#filter8_f_164_62)">
<path d="M1080.35 164.484C1062.99 192.913 1052.43 224.301 1040.24 255.103" stroke="#85FC4D" stroke-width="8" stroke-linecap="round"/>
<path d="M1039.88 159.035C1068.61 177.166 1095.74 194.699 1130.09 199.322" stroke="#85FC4D" stroke-width="8" stroke-linecap="round"/>
<path d="M1080.35 164.484C1062.99 192.913 1052.43 224.301 1040.24 255.103" stroke="#85FC4D" stroke-width="9" stroke-linecap="round"/>
<path d="M1039.88 159.035C1068.61 177.166 1095.74 194.699 1130.09 199.322" stroke="#85FC4D" stroke-width="9" stroke-linecap="round"/>
<path d="M1080.35 164.484C1062.99 192.913 1052.43 224.301 1040.24 255.103" stroke="#85FC4D" stroke-width="8" stroke-linecap="round"/>
<path d="M1039.88 159.035C1068.61 177.166 1095.74 194.699 1130.09 199.322" stroke="#85FC4D" stroke-width="8" stroke-linecap="round"/>
<path d="M1080.35 164.484C1062.99 192.913 1052.43 224.301 1040.24 255.103" stroke="#85FC4D" stroke-width="9" stroke-linecap="round"/>
<path d="M1039.88 159.035C1068.61 177.166 1095.74 194.699 1130.09 199.322" stroke="#85FC4D" stroke-width="9" stroke-linecap="round"/>
</g>
<path d="M1080.35 164.484C1062.99 192.913 1052.43 224.301 1040.24 255.103" stroke="#85FC4D" stroke-width="8" stroke-linecap="round"/>
<path d="M1039.88 159.035C1068.61 177.166 1095.74 194.699 1130.09 199.322" stroke="#85FC4D" stroke-width="8" stroke-linecap="round"/>
<path d="M1080.35 164.484C1062.99 192.913 1052.43 224.301 1040.24 255.103" stroke="#85FC4D" stroke-width="9" stroke-linecap="round"/>
<path d="M1039.88 159.035C1068.61 177.166 1095.74 194.699 1130.09 199.322" stroke="#85FC4D" stroke-width="9" stroke-linecap="round"/>
<path d="M1080.35 164.484C1062.99 192.913 1052.43 224.301 1040.24 255.103" stroke="#85FC4D" stroke-width="8" stroke-linecap="round"/>
<path d="M1039.88 159.035C1068.61 177.166 1095.74 194.699 1130.09 199.322" stroke="#85FC4D" stroke-width="8" stroke-linecap="round"/>
<path d="M1080.35 164.484C1062.99 192.913 1052.43 224.301 1040.24 255.103" stroke="#85FC4D" stroke-width="9" stroke-linecap="round"/>
<path d="M1039.88 159.035C1068.61 177.166 1095.74 194.699 1130.09 199.322" stroke="#85FC4D" stroke-width="9" stroke-linecap="round"/>
<g filter="url(#filter9_f_164_62)">
<path d="M273.706 60.8938C278.299 82.0263 282.331 103.627 290.347 123.784C298.471 144.215 297.458 167.343 303.725 188.137" stroke="#85FC4D" stroke-width="8.40382" stroke-linecap="round"/>
<path d="M275.597 83.6031C288.701 77.8241 301.075 70.1777 315.852 67.3596C326.986 65.2363 339.572 65.9099 351.845 67.6744C356.029 68.276 358.865 69.9224 361.544 74.2304C366.568 82.3075 354.817 88.9032 351.117 92.3035C345.207 97.7346 339.53 103.219 332.682 107.548C327.537 110.801 322.006 110.791 315.749 111.602C309.724 112.382 303.068 111.463 297.885 113.964C295.63 115.052 292.184 114.979 289.474 114.996" stroke="#85FC4D" stroke-width="8.40382" stroke-linecap="round"/>
<path d="M273.706 60.8938C278.299 82.0263 282.331 103.627 290.347 123.784C298.471 144.215 297.458 167.343 303.725 188.137" stroke="#85FC4D" stroke-width="8.40382" stroke-linecap="round"/>
<path d="M275.597 83.6031C288.701 77.8241 301.075 70.1777 315.852 67.3596C326.986 65.2363 339.572 65.9099 351.845 67.6744C356.029 68.276 358.865 69.9224 361.544 74.2304C366.568 82.3075 354.817 88.9032 351.117 92.3035C345.207 97.7346 339.53 103.219 332.682 107.548C327.537 110.801 322.006 110.791 315.749 111.602C309.724 112.382 303.068 111.463 297.885 113.964C295.63 115.052 292.184 114.979 289.474 114.996" stroke="#85FC4D" stroke-width="8.40382" stroke-linecap="round"/>
<path d="M273.706 60.8938C278.299 82.0263 282.331 103.627 290.347 123.784C298.471 144.215 297.458 167.343 303.725 188.137" stroke="#85FC4D" stroke-width="8.40382" stroke-linecap="round"/>
<path d="M275.597 83.6031C288.701 77.8241 301.075 70.1777 315.852 67.3596C326.986 65.2363 339.572 65.9099 351.845 67.6744C356.029 68.276 358.865 69.9224 361.544 74.2304C366.568 82.3075 354.817 88.9032 351.117 92.3035C345.207 97.7346 339.53 103.219 332.682 107.548C327.537 110.801 322.006 110.791 315.749 111.602C309.724 112.382 303.068 111.463 297.885 113.964C295.63 115.052 292.184 114.979 289.474 114.996" stroke="#85FC4D" stroke-width="8.40382" stroke-linecap="round"/>
<path d="M273.706 60.8938C278.299 82.0263 282.331 103.627 290.347 123.784C298.471 144.215 297.458 167.343 303.725 188.137" stroke="#85FC4D" stroke-width="8.40382" stroke-linecap="round"/>
<path d="M275.597 83.6031C288.701 77.8241 301.075 70.1777 315.852 67.3596C326.986 65.2363 339.572 65.9099 351.845 67.6744C356.029 68.276 358.865 69.9224 361.544 74.2304C366.568 82.3075 354.817 88.9032 351.117 92.3035C345.207 97.7346 339.53 103.219 332.682 107.548C327.537 110.801 322.006 110.791 315.749 111.602C309.724 112.382 303.068 111.463 297.885 113.964C295.63 115.052 292.184 114.979 289.474 114.996" stroke="#85FC4D" stroke-width="8.40382" stroke-linecap="round"/>
</g>
<path d="M273.706 60.8938C278.299 82.0263 282.331 103.627 290.347 123.784C298.471 144.215 297.458 167.343 303.725 188.137" stroke="#85FC4D" stroke-width="8.40382" stroke-linecap="round"/>
<path d="M275.597 83.6031C288.701 77.8241 301.075 70.1777 315.852 67.3596C326.986 65.2363 339.572 65.9099 351.845 67.6744C356.029 68.276 358.865 69.9224 361.544 74.2304C366.568 82.3075 354.817 88.9032 351.117 92.3035C345.207 97.7346 339.53 103.219 332.682 107.548C327.537 110.801 322.006 110.791 315.749 111.602C309.724 112.382 303.068 111.463 297.885 113.964C295.63 115.052 292.184 114.979 289.474 114.996" stroke="#85FC4D" stroke-width="8.40382" stroke-linecap="round"/>
<path d="M273.706 60.8938C278.299 82.0263 282.331 103.627 290.347 123.784C298.471 144.215 297.458 167.343 303.725 188.137" stroke="#85FC4D" stroke-width="8.40382" stroke-linecap="round"/>
<path d="M275.597 83.6031C288.701 77.8241 301.075 70.1777 315.852 67.3596C326.986 65.2363 339.572 65.9099 351.845 67.6744C356.029 68.276 358.865 69.9224 361.544 74.2304C366.568 82.3075 354.817 88.9032 351.117 92.3035C345.207 97.7346 339.53 103.219 332.682 107.548C327.537 110.801 322.006 110.791 315.749 111.602C309.724 112.382 303.068 111.463 297.885 113.964C295.63 115.052 292.184 114.979 289.474 114.996" stroke="#85FC4D" stroke-width="8.40382" stroke-linecap="round"/>
<path d="M273.706 60.8938C278.299 82.0263 282.331 103.627 290.347 123.784C298.471 144.215 297.458 167.343 303.725 188.137" stroke="#85FC4D" stroke-width="8.40382" stroke-linecap="round"/>
<path d="M275.597 83.6031C288.701 77.8241 301.075 70.1777 315.852 67.3596C326.986 65.2363 339.572 65.9099 351.845 67.6744C356.029 68.276 358.865 69.9224 361.544 74.2304C366.568 82.3075 354.817 88.9032 351.117 92.3035C345.207 97.7346 339.53 103.219 332.682 107.548C327.537 110.801 322.006 110.791 315.749 111.602C309.724 112.382 303.068 111.463 297.885 113.964C295.63 115.052 292.184 114.979 289.474 114.996" stroke="#85FC4D" stroke-width="8.40382" stroke-linecap="round"/>
<path d="M273.706 60.8938C278.299 82.0263 282.331 103.627 290.347 123.784C298.471 144.215 297.458 167.343 303.725 188.137" stroke="#85FC4D" stroke-width="8.40382" stroke-linecap="round"/>
<path d="M275.597 83.6031C288.701 77.8241 301.075 70.1777 315.852 67.3596C326.986 65.2363 339.572 65.9099 351.845 67.6744C356.029 68.276 358.865 69.9224 361.544 74.2304C366.568 82.3075 354.817 88.9032 351.117 92.3035C345.207 97.7346 339.53 103.219 332.682 107.548C327.537 110.801 322.006 110.791 315.749 111.602C309.724 112.382 303.068 111.463 297.885 113.964C295.63 115.052 292.184 114.979 289.474 114.996" stroke="#85FC4D" stroke-width="8.40382" stroke-linecap="round"/>
<defs>
<filter id="filter0_f_164_62" x="0.916748" y="75.4879" width="142.225" height="174.91" filterUnits="userSpaceOnUse" color-interpolation-filters="sRGB">
<feFlood flood-opacity="0" result="BackgroundImageFix"/>
<feBlend mode="normal" in="SourceGraphic" in2="BackgroundImageFix" result="shape"/>
<feGaussianBlur stdDeviation="10" result="effect1_foregroundBlur_164_62"/>
</filter>
<filter id="filter1_f_164_62" x="135.095" y="55.5754" width="128.489" height="153.915" filterUnits="userSpaceOnUse" color-interpolation-filters="sRGB">
<feFlood flood-opacity="0" result="BackgroundImageFix"/>
<feBlend mode="normal" in="SourceGraphic" in2="BackgroundImageFix" result="shape"/>
<feGaussianBlur stdDeviation="10" result="effect1_foregroundBlur_164_62"/>
</filter>
<filter id="filter2_f_164_62" x="406.001" y="0.5" width="161.707" height="172.062" filterUnits="userSpaceOnUse" color-interpolation-filters="sRGB">
<feFlood flood-opacity="0" result="BackgroundImageFix"/>
<feBlend mode="normal" in="SourceGraphic" in2="BackgroundImageFix" result="shape"/>
<feGaussianBlur stdDeviation="10" result="effect1_foregroundBlur_164_62"/>
</filter>
<filter id="filter3_f_164_62" x="478.092" y="50.9832" width="117.663" height="133.064" filterUnits="userSpaceOnUse" color-interpolation-filters="sRGB">
<feFlood flood-opacity="0" result="BackgroundImageFix"/>
<feBlend mode="normal" in="SourceGraphic" in2="BackgroundImageFix" result="shape"/>
<feGaussianBlur stdDeviation="10" result="effect1_foregroundBlur_164_62"/>
</filter>
<filter id="filter4_f_164_62" x="609.75" y="39.8023" width="208.521" height="138.734" filterUnits="userSpaceOnUse" color-interpolation-filters="sRGB">
<feFlood flood-opacity="0" result="BackgroundImageFix"/>
<feBlend mode="normal" in="SourceGraphic" in2="BackgroundImageFix" result="shape"/>
<feGaussianBlur stdDeviation="10" result="effect1_foregroundBlur_164_62"/>
</filter>
<filter id="filter5_f_164_62" x="767.706" y="51.5294" width="124.757" height="131.423" filterUnits="userSpaceOnUse" color-interpolation-filters="sRGB">
<feFlood flood-opacity="0" result="BackgroundImageFix"/>
<feBlend mode="normal" in="SourceGraphic" in2="BackgroundImageFix" result="shape"/>
<feGaussianBlur stdDeviation="10" result="effect1_foregroundBlur_164_62"/>
</filter>
<filter id="filter6_f_164_62" x="834.252" y="66.8816" width="103.228" height="155.821" filterUnits="userSpaceOnUse" color-interpolation-filters="sRGB">
<feFlood flood-opacity="0" result="BackgroundImageFix"/>
<feBlend mode="normal" in="SourceGraphic" in2="BackgroundImageFix" result="shape"/>
<feGaussianBlur stdDeviation="10" result="effect1_foregroundBlur_164_62"/>
</filter>
<filter id="filter7_f_164_62" x="929.854" y="97.5158" width="111.285" height="150.62" filterUnits="userSpaceOnUse" color-interpolation-filters="sRGB">
<feFlood flood-opacity="0" result="BackgroundImageFix"/>
<feBlend mode="normal" in="SourceGraphic" in2="BackgroundImageFix" result="shape"/>
<feGaussianBlur stdDeviation="10" result="effect1_foregroundBlur_164_62"/>
</filter>
<filter id="filter8_f_164_62" x="1015.38" y="134.534" width="139.211" height="145.071" filterUnits="userSpaceOnUse" color-interpolation-filters="sRGB">
<feFlood flood-opacity="0" result="BackgroundImageFix"/>
<feBlend mode="normal" in="SourceGraphic" in2="BackgroundImageFix" result="shape"/>
<feGaussianBlur stdDeviation="10" result="effect1_foregroundBlur_164_62"/>
</filter>
<filter id="filter9_f_164_62" x="249.503" y="36.691" width="137.473" height="175.649" filterUnits="userSpaceOnUse" color-interpolation-filters="sRGB">
<feFlood flood-opacity="0" result="BackgroundImageFix"/>
<feBlend mode="normal" in="SourceGraphic" in2="BackgroundImageFix" result="shape"/>
<feGaussianBlur stdDeviation="10" result="effect1_foregroundBlur_164_62"/>
</filter>
</defs>
</svg>
