<svg width="118" height="135" viewBox="0 0 118 135" fill="none" xmlns="http://www.w3.org/2000/svg">
<g filter="url(#filter0_f_132_405)">
<path d="M84.8086 27.5064C74.6749 25.6125 63.3226 24.7557 53.0474 26.2302C34.6065 28.8765 27.9896 59.2468 25.3698 74.4522C23.6174 84.6229 23.6145 109.548 38.7095 109.548C59.2301 109.548 88.6777 97.4239 92.885 74.1787C95.3527 60.545 85.071 51.1127 73.3746 47.1963" stroke="#85FC4D" stroke-width="8" stroke-linecap="round"/>
<path d="M84.8086 27.5064C74.6749 25.6125 63.3226 24.7557 53.0474 26.2302C34.6065 28.8765 27.9896 59.2468 25.3698 74.4522C23.6174 84.6229 23.6145 109.548 38.7095 109.548C59.2301 109.548 88.6777 97.4239 92.885 74.1787C95.3527 60.545 85.071 51.1127 73.3746 47.1963" stroke="#85FC4D" stroke-width="9" stroke-linecap="round"/>
<path d="M84.8086 27.5064C74.6749 25.6125 63.3226 24.7557 53.0474 26.2302C34.6065 28.8765 27.9896 59.2468 25.3698 74.4522C23.6174 84.6229 23.6145 109.548 38.7095 109.548C59.2301 109.548 88.6777 97.4239 92.885 74.1787C95.3527 60.545 85.071 51.1127 73.3746 47.1963" stroke="#85FC4D" stroke-width="8" stroke-linecap="round"/>
<path d="M84.8086 27.5064C74.6749 25.6125 63.3226 24.7557 53.0474 26.2302C34.6065 28.8765 27.9896 59.2468 25.3698 74.4522C23.6174 84.6229 23.6145 109.548 38.7095 109.548C59.2301 109.548 88.6777 97.4239 92.885 74.1787C95.3527 60.545 85.071 51.1127 73.3746 47.1963" stroke="#85FC4D" stroke-width="9" stroke-linecap="round"/>
</g>
<path d="M84.8086 27.5064C74.6749 25.6125 63.3226 24.7557 53.0474 26.2302C34.6065 28.8765 27.9896 59.2468 25.3698 74.4522C23.6174 84.6229 23.6145 109.548 38.7095 109.548C59.2301 109.548 88.6777 97.4239 92.885 74.1787C95.3527 60.545 85.071 51.1127 73.3746 47.1963" stroke="#85FC4D" stroke-width="8" stroke-linecap="round"/>
<path d="M84.8086 27.5064C74.6749 25.6125 63.3226 24.7557 53.0474 26.2302C34.6065 28.8765 27.9896 59.2468 25.3698 74.4522C23.6174 84.6229 23.6145 109.548 38.7095 109.548C59.2301 109.548 88.6777 97.4239 92.885 74.1787C95.3527 60.545 85.071 51.1127 73.3746 47.1963" stroke="#85FC4D" stroke-width="9" stroke-linecap="round"/>
<path d="M84.8086 27.5064C74.6749 25.6125 63.3226 24.7557 53.0474 26.2302C34.6065 28.8765 27.9896 59.2468 25.3698 74.4522C23.6174 84.6229 23.6145 109.548 38.7095 109.548C59.2301 109.548 88.6777 97.4239 92.885 74.1787C95.3527 60.545 85.071 51.1127 73.3746 47.1963" stroke="#85FC4D" stroke-width="8" stroke-linecap="round"/>
<path d="M84.8086 27.5064C74.6749 25.6125 63.3226 24.7557 53.0474 26.2302C34.6065 28.8765 27.9896 59.2468 25.3698 74.4522C23.6174 84.6229 23.6145 109.548 38.7095 109.548C59.2301 109.548 88.6777 97.4239 92.885 74.1787C95.3527 60.545 85.071 51.1127 73.3746 47.1963" stroke="#85FC4D" stroke-width="9" stroke-linecap="round"/>
<defs>
<filter id="filter0_f_132_405" x="0.0917969" y="0.983246" width="117.663" height="133.064" filterUnits="userSpaceOnUse" color-interpolation-filters="sRGB">
<feFlood flood-opacity="0" result="BackgroundImageFix"/>
<feBlend mode="normal" in="SourceGraphic" in2="BackgroundImageFix" result="shape"/>
<feGaussianBlur stdDeviation="10" result="effect1_foregroundBlur_132_405"/>
</filter>
</defs>
</svg>
