<svg width="161" height="177" viewBox="0 0 161 177" fill="none" xmlns="http://www.w3.org/2000/svg">
<g filter="url(#filter0_f_132_503)">
<path d="M47.706 24.8938C52.2985 46.0263 56.3311 67.627 64.3466 87.7843C72.4708 108.215 71.4576 131.343 77.7249 152.137" stroke="#85FC4D" stroke-width="8.40382" stroke-linecap="round"/>
<path d="M49.5969 47.6031C62.7011 41.8241 75.0749 34.1777 89.8523 31.3596C100.986 29.2363 113.572 29.9099 125.845 31.6744C130.029 32.276 132.865 33.9224 135.544 38.2304C140.568 46.3075 128.817 52.9032 125.117 56.3035C119.207 61.7346 113.53 67.2186 106.682 71.5478C101.537 74.8007 96.0055 74.7915 89.7488 75.6018C83.7243 76.3821 77.0676 75.4632 71.8847 77.9643C69.6299 79.0524 66.184 78.9788 63.4742 78.9964" stroke="#85FC4D" stroke-width="8.40382" stroke-linecap="round"/>
<path d="M47.706 24.8938C52.2985 46.0263 56.3311 67.627 64.3466 87.7843C72.4708 108.215 71.4576 131.343 77.7249 152.137" stroke="#85FC4D" stroke-width="8.40382" stroke-linecap="round"/>
<path d="M49.5969 47.6031C62.7011 41.8241 75.0749 34.1777 89.8523 31.3596C100.986 29.2363 113.572 29.9099 125.845 31.6744C130.029 32.276 132.865 33.9224 135.544 38.2304C140.568 46.3075 128.817 52.9032 125.117 56.3035C119.207 61.7346 113.53 67.2186 106.682 71.5478C101.537 74.8007 96.0055 74.7915 89.7488 75.6018C83.7243 76.3821 77.0676 75.4632 71.8847 77.9643C69.6299 79.0524 66.184 78.9788 63.4742 78.9964" stroke="#85FC4D" stroke-width="8.40382" stroke-linecap="round"/>
<path d="M47.706 24.8938C52.2985 46.0263 56.3311 67.627 64.3466 87.7843C72.4708 108.215 71.4576 131.343 77.7249 152.137" stroke="#85FC4D" stroke-width="8.40382" stroke-linecap="round"/>
<path d="M49.5969 47.6031C62.7011 41.8241 75.0749 34.1777 89.8523 31.3596C100.986 29.2363 113.572 29.9099 125.845 31.6744C130.029 32.276 132.865 33.9224 135.544 38.2304C140.568 46.3075 128.817 52.9032 125.117 56.3035C119.207 61.7346 113.53 67.2186 106.682 71.5478C101.537 74.8007 96.0055 74.7915 89.7488 75.6018C83.7243 76.3821 77.0676 75.4632 71.8847 77.9643C69.6299 79.0524 66.184 78.9788 63.4742 78.9964" stroke="#85FC4D" stroke-width="8.40382" stroke-linecap="round"/>
<path d="M47.706 24.8938C52.2985 46.0263 56.3311 67.627 64.3466 87.7843C72.4708 108.215 71.4576 131.343 77.7249 152.137" stroke="#85FC4D" stroke-width="8.40382" stroke-linecap="round"/>
<path d="M49.5969 47.6031C62.7011 41.8241 75.0749 34.1777 89.8523 31.3596C100.986 29.2363 113.572 29.9099 125.845 31.6744C130.029 32.276 132.865 33.9224 135.544 38.2304C140.568 46.3075 128.817 52.9032 125.117 56.3035C119.207 61.7346 113.53 67.2186 106.682 71.5478C101.537 74.8007 96.0055 74.7915 89.7488 75.6018C83.7243 76.3821 77.0676 75.4632 71.8847 77.9643C69.6299 79.0524 66.184 78.9788 63.4742 78.9964" stroke="#85FC4D" stroke-width="8.40382" stroke-linecap="round"/>
</g>
<path d="M47.706 24.8938C52.2985 46.0263 56.3311 67.627 64.3466 87.7843C72.4708 108.215 71.4576 131.343 77.7249 152.137" stroke="#85FC4D" stroke-width="8.40382" stroke-linecap="round"/>
<path d="M49.5969 47.6031C62.7011 41.8241 75.0749 34.1777 89.8523 31.3596C100.986 29.2363 113.572 29.9099 125.845 31.6744C130.029 32.276 132.865 33.9224 135.544 38.2304C140.568 46.3075 128.817 52.9032 125.117 56.3035C119.207 61.7346 113.53 67.2186 106.682 71.5478C101.537 74.8007 96.0055 74.7915 89.7488 75.6018C83.7243 76.3821 77.0676 75.4632 71.8847 77.9643C69.6299 79.0524 66.184 78.9788 63.4742 78.9964" stroke="#85FC4D" stroke-width="8.40382" stroke-linecap="round"/>
<path d="M47.706 24.8938C52.2985 46.0263 56.3311 67.627 64.3466 87.7843C72.4708 108.215 71.4576 131.343 77.7249 152.137" stroke="#85FC4D" stroke-width="8.40382" stroke-linecap="round"/>
<path d="M49.5969 47.6031C62.7011 41.8241 75.0749 34.1777 89.8523 31.3596C100.986 29.2363 113.572 29.9099 125.845 31.6744C130.029 32.276 132.865 33.9224 135.544 38.2304C140.568 46.3075 128.817 52.9032 125.117 56.3035C119.207 61.7346 113.53 67.2186 106.682 71.5478C101.537 74.8007 96.0055 74.7915 89.7488 75.6018C83.7243 76.3821 77.0676 75.4632 71.8847 77.9643C69.6299 79.0524 66.184 78.9788 63.4742 78.9964" stroke="#85FC4D" stroke-width="8.40382" stroke-linecap="round"/>
<path d="M47.706 24.8938C52.2985 46.0263 56.3311 67.627 64.3466 87.7843C72.4708 108.215 71.4576 131.343 77.7249 152.137" stroke="#85FC4D" stroke-width="8.40382" stroke-linecap="round"/>
<path d="M49.5969 47.6031C62.7011 41.8241 75.0749 34.1777 89.8523 31.3596C100.986 29.2363 113.572 29.9099 125.845 31.6744C130.029 32.276 132.865 33.9224 135.544 38.2304C140.568 46.3075 128.817 52.9032 125.117 56.3035C119.207 61.7346 113.53 67.2186 106.682 71.5478C101.537 74.8007 96.0055 74.7915 89.7488 75.6018C83.7243 76.3821 77.0676 75.4632 71.8847 77.9643C69.6299 79.0524 66.184 78.9788 63.4742 78.9964" stroke="#85FC4D" stroke-width="8.40382" stroke-linecap="round"/>
<path d="M47.706 24.8938C52.2985 46.0263 56.3311 67.627 64.3466 87.7843C72.4708 108.215 71.4576 131.343 77.7249 152.137" stroke="#85FC4D" stroke-width="8.40382" stroke-linecap="round"/>
<path d="M49.5969 47.6031C62.7011 41.8241 75.0749 34.1777 89.8523 31.3596C100.986 29.2363 113.572 29.9099 125.845 31.6744C130.029 32.276 132.865 33.9224 135.544 38.2304C140.568 46.3075 128.817 52.9032 125.117 56.3035C119.207 61.7346 113.53 67.2186 106.682 71.5478C101.537 74.8007 96.0055 74.7915 89.7488 75.6018C83.7243 76.3821 77.0676 75.4632 71.8847 77.9643C69.6299 79.0524 66.184 78.9788 63.4742 78.9964" stroke="#85FC4D" stroke-width="8.40382" stroke-linecap="round"/>
<defs>
<filter id="filter0_f_132_503" x="23.5032" y="0.69101" width="137.473" height="175.649" filterUnits="userSpaceOnUse" color-interpolation-filters="sRGB">
<feFlood flood-opacity="0" result="BackgroundImageFix"/>
<feBlend mode="normal" in="SourceGraphic" in2="BackgroundImageFix" result="shape"/>
<feGaussianBlur stdDeviation="10" result="effect1_foregroundBlur_132_503"/>
</filter>
</defs>
</svg>
