<svg width="113" height="152" viewBox="0 0 113 152" fill="none" xmlns="http://www.w3.org/2000/svg">
<g filter="url(#filter0_f_132_465)">
<path d="M44.9473 25.017C42.9969 39.6376 42.0583 54.8905 38.3219 69.1913C35.6998 79.2268 31.0937 88.7416 28.6057 98.7859C27.5182 103.176 27.7569 106.568 25.354 110.121" stroke="#85FC4D" stroke-width="8" stroke-linecap="round"/>
<path d="M40.1908 35.9652C49.1317 35.5092 57.4964 36.6393 66.3111 37.8259C76.5235 39.2006 83.4458 40.8568 84.2923 51.283C84.6919 56.2053 90.7822 81.0853 85.4879 84.1859C80.4821 87.1175 68.8605 82.8673 62.8818 82.0625C58.2947 81.445 53.7077 80.8276 49.1206 80.2101C43.4022 79.4403 54.117 94.2779 55.7775 97.5691C60.8094 107.543 71.9812 114.742 74.2401 126.634" stroke="#85FC4D" stroke-width="8" stroke-linecap="round"/>
<path d="M44.9473 25.017C42.9969 39.6376 42.0583 54.8905 38.3219 69.1913C35.6998 79.2268 31.0937 88.7416 28.6057 98.7859C27.5182 103.176 27.7569 106.568 25.354 110.121" stroke="#85FC4D" stroke-width="9" stroke-linecap="round"/>
<path d="M40.1908 35.9652C49.1317 35.5092 57.4964 36.6393 66.3111 37.8259C76.5235 39.2006 83.4458 40.8568 84.2923 51.283C84.6919 56.2053 90.7822 81.0853 85.4879 84.1859C80.4821 87.1175 68.8605 82.8673 62.8818 82.0625C58.2947 81.445 53.7077 80.8276 49.1206 80.2101C43.4022 79.4403 54.117 94.2779 55.7775 97.5691C60.8094 107.543 71.9812 114.742 74.2401 126.634" stroke="#85FC4D" stroke-width="9" stroke-linecap="round"/>
<path d="M44.9473 25.017C42.9969 39.6376 42.0583 54.8905 38.3219 69.1913C35.6998 79.2268 31.0937 88.7416 28.6057 98.7859C27.5182 103.176 27.7569 106.568 25.354 110.121" stroke="#85FC4D" stroke-width="8" stroke-linecap="round"/>
<path d="M40.1908 35.9652C49.1317 35.5092 57.4964 36.6393 66.3111 37.8259C76.5235 39.2006 83.4458 40.8568 84.2923 51.283C84.6919 56.2053 90.7822 81.0853 85.4879 84.1859C80.4821 87.1175 68.8605 82.8673 62.8818 82.0625C58.2947 81.445 53.7077 80.8276 49.1206 80.2101C43.4022 79.4403 54.117 94.2779 55.7775 97.5691C60.8094 107.543 71.9812 114.742 74.2401 126.634" stroke="#85FC4D" stroke-width="8" stroke-linecap="round"/>
<path d="M44.9473 25.017C42.9969 39.6376 42.0583 54.8905 38.3219 69.1913C35.6998 79.2268 31.0937 88.7416 28.6057 98.7859C27.5182 103.176 27.7569 106.568 25.354 110.121" stroke="#85FC4D" stroke-width="9" stroke-linecap="round"/>
<path d="M40.1908 35.9652C49.1317 35.5092 57.4964 36.6393 66.3111 37.8259C76.5235 39.2006 83.4458 40.8568 84.2923 51.283C84.6919 56.2053 90.7822 81.0853 85.4879 84.1859C80.4821 87.1175 68.8605 82.8673 62.8818 82.0625C58.2947 81.445 53.7077 80.8276 49.1206 80.2101C43.4022 79.4403 54.117 94.2779 55.7775 97.5691C60.8094 107.543 71.9812 114.742 74.2401 126.634" stroke="#85FC4D" stroke-width="9" stroke-linecap="round"/>
</g>
<path d="M44.9473 25.017C42.9969 39.6376 42.0583 54.8905 38.3219 69.1913C35.6998 79.2268 31.0937 88.7416 28.6057 98.7859C27.5182 103.176 27.7569 106.568 25.354 110.121" stroke="#85FC4D" stroke-width="8" stroke-linecap="round"/>
<path d="M40.1908 35.9652C49.1317 35.5092 57.4964 36.6393 66.3111 37.8259C76.5235 39.2006 83.4458 40.8568 84.2923 51.283C84.6919 56.2053 90.7822 81.0853 85.4879 84.1859C80.4821 87.1175 68.8605 82.8673 62.8818 82.0625C58.2947 81.445 53.7077 80.8276 49.1206 80.2101C43.4022 79.4403 54.117 94.2779 55.7775 97.5691C60.8094 107.543 71.9812 114.742 74.2401 126.634" stroke="#85FC4D" stroke-width="8" stroke-linecap="round"/>
<path d="M44.9473 25.017C42.9969 39.6376 42.0583 54.8905 38.3219 69.1913C35.6998 79.2268 31.0937 88.7416 28.6057 98.7859C27.5182 103.176 27.7569 106.568 25.354 110.121" stroke="#85FC4D" stroke-width="9" stroke-linecap="round"/>
<path d="M40.1908 35.9652C49.1317 35.5092 57.4964 36.6393 66.3111 37.8259C76.5235 39.2006 83.4458 40.8568 84.2923 51.283C84.6919 56.2053 90.7822 81.0853 85.4879 84.1859C80.4821 87.1175 68.8605 82.8673 62.8818 82.0625C58.2947 81.445 53.7077 80.8276 49.1206 80.2101C43.4022 79.4403 54.117 94.2779 55.7775 97.5691C60.8094 107.543 71.9812 114.742 74.2401 126.634" stroke="#85FC4D" stroke-width="9" stroke-linecap="round"/>
<path d="M44.9473 25.017C42.9969 39.6376 42.0583 54.8905 38.3219 69.1913C35.6998 79.2268 31.0937 88.7416 28.6057 98.7859C27.5182 103.176 27.7569 106.568 25.354 110.121" stroke="#85FC4D" stroke-width="8" stroke-linecap="round"/>
<path d="M40.1908 35.9652C49.1317 35.5092 57.4964 36.6393 66.3111 37.8259C76.5235 39.2006 83.4458 40.8568 84.2923 51.283C84.6919 56.2053 90.7822 81.0853 85.4879 84.1859C80.4821 87.1175 68.8605 82.8673 62.8818 82.0625C58.2947 81.445 53.7077 80.8276 49.1206 80.2101C43.4022 79.4403 54.117 94.2779 55.7775 97.5691C60.8094 107.543 71.9812 114.742 74.2401 126.634" stroke="#85FC4D" stroke-width="8" stroke-linecap="round"/>
<path d="M44.9473 25.017C42.9969 39.6376 42.0583 54.8905 38.3219 69.1913C35.6998 79.2268 31.0937 88.7416 28.6057 98.7859C27.5182 103.176 27.7569 106.568 25.354 110.121" stroke="#85FC4D" stroke-width="9" stroke-linecap="round"/>
<path d="M40.1908 35.9652C49.1317 35.5092 57.4964 36.6393 66.3111 37.8259C76.5235 39.2006 83.4458 40.8568 84.2923 51.283C84.6919 56.2053 90.7822 81.0853 85.4879 84.1859C80.4821 87.1175 68.8605 82.8673 62.8818 82.0625C58.2947 81.445 53.7077 80.8276 49.1206 80.2101C43.4022 79.4403 54.117 94.2779 55.7775 97.5691C60.8094 107.543 71.9812 114.742 74.2401 126.634" stroke="#85FC4D" stroke-width="9" stroke-linecap="round"/>
<defs>
<filter id="filter0_f_132_465" x="0.854248" y="0.515808" width="111.285" height="150.62" filterUnits="userSpaceOnUse" color-interpolation-filters="sRGB">
<feFlood flood-opacity="0" result="BackgroundImageFix"/>
<feBlend mode="normal" in="SourceGraphic" in2="BackgroundImageFix" result="shape"/>
<feGaussianBlur stdDeviation="10" result="effect1_foregroundBlur_132_465"/>
</filter>
</defs>
</svg>
