<svg width="210" height="140" viewBox="0 0 210 140" fill="none" xmlns="http://www.w3.org/2000/svg">
<g filter="url(#filter0_f_132_416)">
<path d="M155.567 46.5541C142.299 30.1254 94.4897 10.2464 90.1582 42.7156C89.0176 51.2653 90.8091 60.6074 101.083 62.3966C121.844 66.012 141.28 79.1829 162.115 83.9483C169.455 85.627 179.082 93.1458 184.083 98.402C185.772 100.177 183.913 106.537 183.183 108.582C179.948 117.644 170.911 114.839 163.169 113.797C151.935 112.285 141.388 109.242 130.642 105.74C107.513 98.2021 86.0965 94.9642 61.7408 95.8207C55.2228 96.0499 50.5802 98.096 44.3663 99.0921C38.4532 100.04 31.1791 97.6848 25.2503 96.8867" stroke="#85FC4D" stroke-width="8" stroke-linecap="round"/>
<path d="M155.567 46.5541C142.299 30.1254 94.4897 10.2464 90.1582 42.7156C89.0176 51.2653 90.8091 60.6074 101.083 62.3966C121.844 66.012 141.28 79.1829 162.115 83.9483C169.455 85.627 179.082 93.1458 184.083 98.402C185.772 100.177 183.913 106.537 183.183 108.582C179.948 117.644 170.911 114.839 163.169 113.797C151.935 112.285 141.388 109.242 130.642 105.74C107.513 98.2021 86.0965 94.9642 61.7408 95.8207C55.2228 96.0499 50.5802 98.096 44.3663 99.0921C38.4532 100.04 31.1791 97.6848 25.2503 96.8867" stroke="#85FC4D" stroke-width="9" stroke-linecap="round"/>
<path d="M155.567 46.5541C142.299 30.1254 94.4897 10.2464 90.1582 42.7156C89.0176 51.2653 90.8091 60.6074 101.083 62.3966C121.844 66.012 141.28 79.1829 162.115 83.9483C169.455 85.627 179.082 93.1458 184.083 98.402C185.772 100.177 183.913 106.537 183.183 108.582C179.948 117.644 170.911 114.839 163.169 113.797C151.935 112.285 141.388 109.242 130.642 105.74C107.513 98.2021 86.0965 94.9642 61.7408 95.8207C55.2228 96.0499 50.5802 98.096 44.3663 99.0921C38.4532 100.04 31.1791 97.6848 25.2503 96.8867" stroke="#85FC4D" stroke-width="8" stroke-linecap="round"/>
<path d="M155.567 46.5541C142.299 30.1254 94.4897 10.2464 90.1582 42.7156C89.0176 51.2653 90.8091 60.6074 101.083 62.3966C121.844 66.012 141.28 79.1829 162.115 83.9483C169.455 85.627 179.082 93.1458 184.083 98.402C185.772 100.177 183.913 106.537 183.183 108.582C179.948 117.644 170.911 114.839 163.169 113.797C151.935 112.285 141.388 109.242 130.642 105.74C107.513 98.2021 86.0965 94.9642 61.7408 95.8207C55.2228 96.0499 50.5802 98.096 44.3663 99.0921C38.4532 100.04 31.1791 97.6848 25.2503 96.8867" stroke="#85FC4D" stroke-width="9" stroke-linecap="round"/>
</g>
<path d="M155.567 46.5541C142.299 30.1254 94.4897 10.2464 90.1582 42.7156C89.0176 51.2653 90.8091 60.6074 101.083 62.3966C121.844 66.012 141.28 79.1829 162.115 83.9483C169.455 85.627 179.082 93.1458 184.083 98.402C185.772 100.177 183.913 106.537 183.183 108.582C179.948 117.644 170.911 114.839 163.169 113.797C151.935 112.285 141.388 109.242 130.642 105.74C107.513 98.2021 86.0965 94.9642 61.7408 95.8207C55.2228 96.0499 50.5802 98.096 44.3663 99.0921C38.4532 100.04 31.1791 97.6848 25.2503 96.8867" stroke="#85FC4D" stroke-width="8" stroke-linecap="round"/>
<path d="M155.567 46.5541C142.299 30.1254 94.4897 10.2464 90.1582 42.7156C89.0176 51.2653 90.8091 60.6074 101.083 62.3966C121.844 66.012 141.28 79.1829 162.115 83.9483C169.455 85.627 179.082 93.1458 184.083 98.402C185.772 100.177 183.913 106.537 183.183 108.582C179.948 117.644 170.911 114.839 163.169 113.797C151.935 112.285 141.388 109.242 130.642 105.74C107.513 98.2021 86.0965 94.9642 61.7408 95.8207C55.2228 96.0499 50.5802 98.096 44.3663 99.0921C38.4532 100.04 31.1791 97.6848 25.2503 96.8867" stroke="#85FC4D" stroke-width="9" stroke-linecap="round"/>
<path d="M155.567 46.5541C142.299 30.1254 94.4897 10.2464 90.1582 42.7156C89.0176 51.2653 90.8091 60.6074 101.083 62.3966C121.844 66.012 141.28 79.1829 162.115 83.9483C169.455 85.627 179.082 93.1458 184.083 98.402C185.772 100.177 183.913 106.537 183.183 108.582C179.948 117.644 170.911 114.839 163.169 113.797C151.935 112.285 141.388 109.242 130.642 105.74C107.513 98.2021 86.0965 94.9642 61.7408 95.8207C55.2228 96.0499 50.5802 98.096 44.3663 99.0921C38.4532 100.04 31.1791 97.6848 25.2503 96.8867" stroke="#85FC4D" stroke-width="8" stroke-linecap="round"/>
<path d="M155.567 46.5541C142.299 30.1254 94.4897 10.2464 90.1582 42.7156C89.0176 51.2653 90.8091 60.6074 101.083 62.3966C121.844 66.012 141.28 79.1829 162.115 83.9483C169.455 85.627 179.082 93.1458 184.083 98.402C185.772 100.177 183.913 106.537 183.183 108.582C179.948 117.644 170.911 114.839 163.169 113.797C151.935 112.285 141.388 109.242 130.642 105.74C107.513 98.2021 86.0965 94.9642 61.7408 95.8207C55.2228 96.0499 50.5802 98.096 44.3663 99.0921C38.4532 100.04 31.1791 97.6848 25.2503 96.8867" stroke="#85FC4D" stroke-width="9" stroke-linecap="round"/>
<defs>
<filter id="filter0_f_132_416" x="0.750488" y="0.802277" width="208.521" height="138.734" filterUnits="userSpaceOnUse" color-interpolation-filters="sRGB">
<feFlood flood-opacity="0" result="BackgroundImageFix"/>
<feBlend mode="normal" in="SourceGraphic" in2="BackgroundImageFix" result="shape"/>
<feGaussianBlur stdDeviation="10" result="effect1_foregroundBlur_132_416"/>
</filter>
</defs>
</svg>
