<svg width="162" height="173" viewBox="0 0 162 173" fill="none" xmlns="http://www.w3.org/2000/svg">
<g filter="url(#filter0_f_132_386)">
<path d="M75.1371 25C75.1371 49.456 75.9601 74.0628 74.4111 98.4725C73.3693 114.891 70.2368 131.604 70.2368 148.062" stroke="#85FC4D" stroke-width="8" stroke-linecap="round"/>
<path d="M24.501 41.4083C57.1082 44.4411 88.7433 46.3307 121.509 46.3307C126.957 46.3307 132.04 44.6899 137.208 44.6899" stroke="#85FC4D" stroke-width="8" stroke-linecap="round"/>
<path d="M75.1371 25C75.1371 49.456 75.9601 74.0628 74.4111 98.4725C73.3693 114.891 70.2368 131.604 70.2368 148.062" stroke="#85FC4D" stroke-width="9" stroke-linecap="round"/>
<path d="M24.501 41.4083C57.1082 44.4411 88.7433 46.3307 121.509 46.3307C126.957 46.3307 132.04 44.6899 137.208 44.6899" stroke="#85FC4D" stroke-width="9" stroke-linecap="round"/>
<path d="M75.1371 25C75.1371 49.456 75.9601 74.0628 74.4111 98.4725C73.3693 114.891 70.2368 131.604 70.2368 148.062" stroke="#85FC4D" stroke-width="8" stroke-linecap="round"/>
<path d="M24.501 41.4083C57.1082 44.4411 88.7433 46.3307 121.509 46.3307C126.957 46.3307 132.04 44.6899 137.208 44.6899" stroke="#85FC4D" stroke-width="8" stroke-linecap="round"/>
<path d="M75.1371 25C75.1371 49.456 75.9601 74.0628 74.4111 98.4725C73.3693 114.891 70.2368 131.604 70.2368 148.062" stroke="#85FC4D" stroke-width="9" stroke-linecap="round"/>
<path d="M24.501 41.4083C57.1082 44.4411 88.7433 46.3307 121.509 46.3307C126.957 46.3307 132.04 44.6899 137.208 44.6899" stroke="#85FC4D" stroke-width="9" stroke-linecap="round"/>
</g>
<path d="M75.1371 25C75.1371 49.456 75.9601 74.0628 74.4111 98.4725C73.3693 114.891 70.2368 131.604 70.2368 148.062" stroke="#85FC4D" stroke-width="8" stroke-linecap="round"/>
<path d="M24.501 41.4083C57.1082 44.4411 88.7433 46.3307 121.509 46.3307C126.957 46.3307 132.04 44.6899 137.208 44.6899" stroke="#85FC4D" stroke-width="8" stroke-linecap="round"/>
<path d="M75.1371 25C75.1371 49.456 75.9601 74.0628 74.4111 98.4725C73.3693 114.891 70.2368 131.604 70.2368 148.062" stroke="#85FC4D" stroke-width="9" stroke-linecap="round"/>
<path d="M24.501 41.4083C57.1082 44.4411 88.7433 46.3307 121.509 46.3307C126.957 46.3307 132.04 44.6899 137.208 44.6899" stroke="#85FC4D" stroke-width="9" stroke-linecap="round"/>
<path d="M75.1371 25C75.1371 49.456 75.9601 74.0628 74.4111 98.4725C73.3693 114.891 70.2368 131.604 70.2368 148.062" stroke="#85FC4D" stroke-width="8" stroke-linecap="round"/>
<path d="M24.501 41.4083C57.1082 44.4411 88.7433 46.3307 121.509 46.3307C126.957 46.3307 132.04 44.6899 137.208 44.6899" stroke="#85FC4D" stroke-width="8" stroke-linecap="round"/>
<path d="M75.1371 25C75.1371 49.456 75.9601 74.0628 74.4111 98.4725C73.3693 114.891 70.2368 131.604 70.2368 148.062" stroke="#85FC4D" stroke-width="9" stroke-linecap="round"/>
<path d="M24.501 41.4083C57.1082 44.4411 88.7433 46.3307 121.509 46.3307C126.957 46.3307 132.04 44.6899 137.208 44.6899" stroke="#85FC4D" stroke-width="9" stroke-linecap="round"/>
<defs>
<filter id="filter0_f_132_386" x="0.000732422" y="0.5" width="161.707" height="172.062" filterUnits="userSpaceOnUse" color-interpolation-filters="sRGB">
<feFlood flood-opacity="0" result="BackgroundImageFix"/>
<feBlend mode="normal" in="SourceGraphic" in2="BackgroundImageFix" result="shape"/>
<feGaussianBlur stdDeviation="10" result="effect1_foregroundBlur_132_386"/>
</filter>
</defs>
</svg>
