<svg width="144" height="176" viewBox="0 0 144 176" fill="none" xmlns="http://www.w3.org/2000/svg">
<g filter="url(#filter0_f_132_332)">
<path d="M73.318 33.4213C75.8845 53.3833 77.0201 73.3644 80.0505 93.3163C81.5922 103.466 86.1884 112.727 87.9608 122.502C89.2348 129.529 94.8816 148.742 101.341 150.896" stroke="#85FC4D" stroke-width="8" stroke-linecap="round"/>
<path d="M25.4165 62.7934C52.5673 58.2806 76.6425 45.0272 102.577 38.4299C108.671 36.8798 112.923 27.8708 118.641 24.9897" stroke="#85FC4D" stroke-width="8" stroke-linecap="round"/>
<path d="M73.318 33.4213C75.8845 53.3833 77.0201 73.3644 80.0505 93.3163C81.5922 103.466 86.1884 112.727 87.9608 122.502C89.2348 129.529 94.8816 148.742 101.341 150.896" stroke="#85FC4D" stroke-width="9" stroke-linecap="round"/>
<path d="M25.4165 62.7934C52.5673 58.2806 76.6425 45.0272 102.577 38.4299C108.671 36.8798 112.923 27.8708 118.641 24.9897" stroke="#85FC4D" stroke-width="9" stroke-linecap="round"/>
<path d="M73.318 33.4213C75.8845 53.3833 77.0201 73.3644 80.0505 93.3163C81.5922 103.466 86.1884 112.727 87.9608 122.502C89.2348 129.529 94.8816 148.742 101.341 150.896" stroke="#85FC4D" stroke-width="8" stroke-linecap="round"/>
<path d="M25.4165 62.7934C52.5673 58.2806 76.6425 45.0272 102.577 38.4299C108.671 36.8798 112.923 27.8708 118.641 24.9897" stroke="#85FC4D" stroke-width="8" stroke-linecap="round"/>
<path d="M73.318 33.4213C75.8845 53.3833 77.0201 73.3644 80.0505 93.3163C81.5922 103.466 86.1884 112.727 87.9608 122.502C89.2348 129.529 94.8816 148.742 101.341 150.896" stroke="#85FC4D" stroke-width="9" stroke-linecap="round"/>
<path d="M25.4165 62.7934C52.5673 58.2806 76.6425 45.0272 102.577 38.4299C108.671 36.8798 112.923 27.8708 118.641 24.9897" stroke="#85FC4D" stroke-width="9" stroke-linecap="round"/>
<path d="M73.318 33.4213C75.8845 53.3833 77.0201 73.3644 80.0505 93.3163C81.5922 103.466 86.1884 112.727 87.9608 122.502C89.2348 129.529 94.8816 148.742 101.341 150.896" stroke="#85FC4D" stroke-width="8" stroke-linecap="round"/>
<path d="M25.4165 62.7934C52.5673 58.2806 76.6425 45.0272 102.577 38.4299C108.671 36.8798 112.923 27.8708 118.641 24.9897" stroke="#85FC4D" stroke-width="8" stroke-linecap="round"/>
<path d="M73.318 33.4213C75.8845 53.3833 77.0201 73.3644 80.0505 93.3163C81.5922 103.466 86.1884 112.727 87.9608 122.502C89.2348 129.529 94.8816 148.742 101.341 150.896" stroke="#85FC4D" stroke-width="9" stroke-linecap="round"/>
<path d="M25.4165 62.7934C52.5673 58.2806 76.6425 45.0272 102.577 38.4299C108.671 36.8798 112.923 27.8708 118.641 24.9897" stroke="#85FC4D" stroke-width="9" stroke-linecap="round"/>
<path d="M73.318 33.4213C75.8845 53.3833 77.0201 73.3644 80.0505 93.3163C81.5922 103.466 86.1884 112.727 87.9608 122.502C89.2348 129.529 94.8816 148.742 101.341 150.896" stroke="#85FC4D" stroke-width="8" stroke-linecap="round"/>
<path d="M25.4165 62.7934C52.5673 58.2806 76.6425 45.0272 102.577 38.4299C108.671 36.8798 112.923 27.8708 118.641 24.9897" stroke="#85FC4D" stroke-width="8" stroke-linecap="round"/>
<path d="M73.318 33.4213C75.8845 53.3833 77.0201 73.3644 80.0505 93.3163C81.5922 103.466 86.1884 112.727 87.9608 122.502C89.2348 129.529 94.8816 148.742 101.341 150.896" stroke="#85FC4D" stroke-width="9" stroke-linecap="round"/>
<path d="M25.4165 62.7934C52.5673 58.2806 76.6425 45.0272 102.577 38.4299C108.671 36.8798 112.923 27.8708 118.641 24.9897" stroke="#85FC4D" stroke-width="9" stroke-linecap="round"/>
</g>
<path d="M73.318 33.4213C75.8845 53.3833 77.0201 73.3644 80.0505 93.3163C81.5922 103.466 86.1884 112.727 87.9608 122.502C89.2348 129.529 94.8816 148.742 101.341 150.896" stroke="#85FC4D" stroke-width="8" stroke-linecap="round"/>
<path d="M25.4165 62.7934C52.5673 58.2806 76.6425 45.0272 102.577 38.4299C108.671 36.8798 112.923 27.8708 118.641 24.9897" stroke="#85FC4D" stroke-width="8" stroke-linecap="round"/>
<path d="M73.318 33.4213C75.8845 53.3833 77.0201 73.3644 80.0505 93.3163C81.5922 103.466 86.1884 112.727 87.9608 122.502C89.2348 129.529 94.8816 148.742 101.341 150.896" stroke="#85FC4D" stroke-width="9" stroke-linecap="round"/>
<path d="M25.4165 62.7934C52.5673 58.2806 76.6425 45.0272 102.577 38.4299C108.671 36.8798 112.923 27.8708 118.641 24.9897" stroke="#85FC4D" stroke-width="9" stroke-linecap="round"/>
<path d="M73.318 33.4213C75.8845 53.3833 77.0201 73.3644 80.0505 93.3163C81.5922 103.466 86.1884 112.727 87.9608 122.502C89.2348 129.529 94.8816 148.742 101.341 150.896" stroke="#85FC4D" stroke-width="8" stroke-linecap="round"/>
<path d="M25.4165 62.7934C52.5673 58.2806 76.6425 45.0272 102.577 38.4299C108.671 36.8798 112.923 27.8708 118.641 24.9897" stroke="#85FC4D" stroke-width="8" stroke-linecap="round"/>
<path d="M73.318 33.4213C75.8845 53.3833 77.0201 73.3644 80.0505 93.3163C81.5922 103.466 86.1884 112.727 87.9608 122.502C89.2348 129.529 94.8816 148.742 101.341 150.896" stroke="#85FC4D" stroke-width="9" stroke-linecap="round"/>
<path d="M25.4165 62.7934C52.5673 58.2806 76.6425 45.0272 102.577 38.4299C108.671 36.8798 112.923 27.8708 118.641 24.9897" stroke="#85FC4D" stroke-width="9" stroke-linecap="round"/>
<path d="M73.318 33.4213C75.8845 53.3833 77.0201 73.3644 80.0505 93.3163C81.5922 103.466 86.1884 112.727 87.9608 122.502C89.2348 129.529 94.8816 148.742 101.341 150.896" stroke="#85FC4D" stroke-width="8" stroke-linecap="round"/>
<path d="M25.4165 62.7934C52.5673 58.2806 76.6425 45.0272 102.577 38.4299C108.671 36.8798 112.923 27.8708 118.641 24.9897" stroke="#85FC4D" stroke-width="8" stroke-linecap="round"/>
<path d="M73.318 33.4213C75.8845 53.3833 77.0201 73.3644 80.0505 93.3163C81.5922 103.466 86.1884 112.727 87.9608 122.502C89.2348 129.529 94.8816 148.742 101.341 150.896" stroke="#85FC4D" stroke-width="9" stroke-linecap="round"/>
<path d="M25.4165 62.7934C52.5673 58.2806 76.6425 45.0272 102.577 38.4299C108.671 36.8798 112.923 27.8708 118.641 24.9897" stroke="#85FC4D" stroke-width="9" stroke-linecap="round"/>
<path d="M73.318 33.4213C75.8845 53.3833 77.0201 73.3644 80.0505 93.3163C81.5922 103.466 86.1884 112.727 87.9608 122.502C89.2348 129.529 94.8816 148.742 101.341 150.896" stroke="#85FC4D" stroke-width="8" stroke-linecap="round"/>
<path d="M25.4165 62.7934C52.5673 58.2806 76.6425 45.0272 102.577 38.4299C108.671 36.8798 112.923 27.8708 118.641 24.9897" stroke="#85FC4D" stroke-width="8" stroke-linecap="round"/>
<path d="M73.318 33.4213C75.8845 53.3833 77.0201 73.3644 80.0505 93.3163C81.5922 103.466 86.1884 112.727 87.9608 122.502C89.2348 129.529 94.8816 148.742 101.341 150.896" stroke="#85FC4D" stroke-width="9" stroke-linecap="round"/>
<path d="M25.4165 62.7934C52.5673 58.2806 76.6425 45.0272 102.577 38.4299C108.671 36.8798 112.923 27.8708 118.641 24.9897" stroke="#85FC4D" stroke-width="9" stroke-linecap="round"/>
<defs>
<filter id="filter0_f_132_332" x="0.916748" y="0.487885" width="142.225" height="174.91" filterUnits="userSpaceOnUse" color-interpolation-filters="sRGB">
<feFlood flood-opacity="0" result="BackgroundImageFix"/>
<feBlend mode="normal" in="SourceGraphic" in2="BackgroundImageFix" result="shape"/>
<feGaussianBlur stdDeviation="10" result="effect1_foregroundBlur_132_332"/>
</filter>
</defs>
</svg>
