<svg width="126" height="132" viewBox="0 0 126 132" fill="none" xmlns="http://www.w3.org/2000/svg">
<g filter="url(#filter0_f_132_427)">
<path d="M63.4104 35.1401C58.2243 52.0793 52.5398 67.2116 50.209 84.6832C49.1966 92.2725 48.1841 99.8619 47.1717 107.451" stroke="#85FC4D" stroke-width="8" stroke-linecap="round"/>
<path d="M25.2061 25.0308C42.4666 35.2833 58.8961 39.4989 78.5893 42.1498C84.9801 43.0101 96.2981 46.0076 100.964 50.1282" stroke="#85FC4D" stroke-width="8" stroke-linecap="round"/>
<path d="M63.4104 35.1401C58.2243 52.0793 52.5398 67.2116 50.209 84.6832C49.1966 92.2725 48.1841 99.8619 47.1717 107.451" stroke="#85FC4D" stroke-width="9" stroke-linecap="round"/>
<path d="M25.2061 25.0308C42.4666 35.2833 58.8961 39.4989 78.5893 42.1498C84.9801 43.0101 96.2981 46.0076 100.964 50.1282" stroke="#85FC4D" stroke-width="9" stroke-linecap="round"/>
<path d="M63.4104 35.1401C58.2243 52.0793 52.5398 67.2116 50.209 84.6832C49.1966 92.2725 48.1841 99.8619 47.1717 107.451" stroke="#85FC4D" stroke-width="8" stroke-linecap="round"/>
<path d="M25.2061 25.0308C42.4666 35.2833 58.8961 39.4989 78.5893 42.1498C84.9801 43.0101 96.2981 46.0076 100.964 50.1282" stroke="#85FC4D" stroke-width="8" stroke-linecap="round"/>
<path d="M63.4104 35.1401C58.2243 52.0793 52.5398 67.2116 50.209 84.6832C49.1966 92.2725 48.1841 99.8619 47.1717 107.451" stroke="#85FC4D" stroke-width="9" stroke-linecap="round"/>
<path d="M25.2061 25.0308C42.4666 35.2833 58.8961 39.4989 78.5893 42.1498C84.9801 43.0101 96.2981 46.0076 100.964 50.1282" stroke="#85FC4D" stroke-width="9" stroke-linecap="round"/>
</g>
<path d="M63.4104 35.1401C58.2243 52.0793 52.5398 67.2116 50.209 84.6832C49.1966 92.2725 48.1841 99.8619 47.1717 107.451" stroke="#85FC4D" stroke-width="8" stroke-linecap="round"/>
<path d="M25.2061 25.0308C42.4666 35.2833 58.8961 39.4989 78.5893 42.1498C84.9801 43.0101 96.2981 46.0076 100.964 50.1282" stroke="#85FC4D" stroke-width="8" stroke-linecap="round"/>
<path d="M63.4104 35.1401C58.2243 52.0793 52.5398 67.2116 50.209 84.6832C49.1966 92.2725 48.1841 99.8619 47.1717 107.451" stroke="#85FC4D" stroke-width="9" stroke-linecap="round"/>
<path d="M25.2061 25.0308C42.4666 35.2833 58.8961 39.4989 78.5893 42.1498C84.9801 43.0101 96.2981 46.0076 100.964 50.1282" stroke="#85FC4D" stroke-width="9" stroke-linecap="round"/>
<path d="M63.4104 35.1401C58.2243 52.0793 52.5398 67.2116 50.209 84.6832C49.1966 92.2725 48.1841 99.8619 47.1717 107.451" stroke="#85FC4D" stroke-width="8" stroke-linecap="round"/>
<path d="M25.2061 25.0308C42.4666 35.2833 58.8961 39.4989 78.5893 42.1498C84.9801 43.0101 96.2981 46.0076 100.964 50.1282" stroke="#85FC4D" stroke-width="8" stroke-linecap="round"/>
<path d="M63.4104 35.1401C58.2243 52.0793 52.5398 67.2116 50.209 84.6832C49.1966 92.2725 48.1841 99.8619 47.1717 107.451" stroke="#85FC4D" stroke-width="9" stroke-linecap="round"/>
<path d="M25.2061 25.0308C42.4666 35.2833 58.8961 39.4989 78.5893 42.1498C84.9801 43.0101 96.2981 46.0076 100.964 50.1282" stroke="#85FC4D" stroke-width="9" stroke-linecap="round"/>
<defs>
<filter id="filter0_f_132_427" x="0.706055" y="0.529358" width="124.757" height="131.423" filterUnits="userSpaceOnUse" color-interpolation-filters="sRGB">
<feFlood flood-opacity="0" result="BackgroundImageFix"/>
<feBlend mode="normal" in="SourceGraphic" in2="BackgroundImageFix" result="shape"/>
<feGaussianBlur stdDeviation="10" result="effect1_foregroundBlur_132_427"/>
</filter>
</defs>
</svg>
