<svg width="100" height="106" viewBox="0 0 100 106" fill="none" xmlns="http://www.w3.org/2000/svg">
<path d="M45.3493 10.4835C27.9872 38.9131 17.4269 70.3006 5.2436 101.103" stroke="#85FC4D" stroke-width="8" stroke-linecap="round"/>
<path d="M4.87524 5.03519C33.6135 23.1661 60.7398 40.6987 95.0868 45.3223" stroke="#85FC4D" stroke-width="8" stroke-linecap="round"/>
<path d="M45.3493 10.4835C27.9872 38.9131 17.4269 70.3006 5.2436 101.103" stroke="#85FC4D" stroke-width="9" stroke-linecap="round"/>
<path d="M4.87524 5.03519C33.6135 23.1661 60.7398 40.6987 95.0868 45.3223" stroke="#85FC4D" stroke-width="9" stroke-linecap="round"/>
<path d="M45.3493 10.4835C27.9872 38.9131 17.4269 70.3006 5.2436 101.103" stroke="#85FC4D" stroke-width="8" stroke-linecap="round"/>
<path d="M4.87524 5.03519C33.6135 23.1661 60.7398 40.6987 95.0868 45.3223" stroke="#85FC4D" stroke-width="8" stroke-linecap="round"/>
<path d="M45.3493 10.4835C27.9872 38.9131 17.4269 70.3006 5.2436 101.103" stroke="#85FC4D" stroke-width="9" stroke-linecap="round"/>
<path d="M4.87524 5.03519C33.6135 23.1661 60.7398 40.6987 95.0868 45.3223" stroke="#85FC4D" stroke-width="9" stroke-linecap="round"/>
</svg>
